{
  "accessors": [
    {
      "bufferView": 2,
      "componentType": 5126,
      "count": 209,
      "max": [
        1.1158699989318848,
        30.009090423583984,
        13.045780181884766
      ],
      "min": [
        -14.04440975189209,
        -17.001310348510742,
        -0.2864159047603607
      ],
      "type": "VEC3"
    },
    {
      "bufferView": 2,
      "byteOffset": 2508,
      "componentType": 5126,
      "count": 209,
      "max": [
        1.0,
        1.0,
        1.0
      ],
      "min": [
        -1.0,
        -1.0,
        -1.0
      ],
      "type": "VEC3"
    },
    {
      "bufferView": 1,
      "componentType": 5126,
      "count": 209,
      "max": [
        1.886132001876831,
        1.0005489587783813
      ],
      "min": [
        -0.8828917741775513,
        -0.02537434920668602
      ],
      "type": "VEC2"
    },
    {
      "bufferView": 0,
      "componentType": 5125,
      "count": 312,
      "type": "SCALAR"
    },
    {
      "bufferView": 2,
      "byteOffset": 5016,
      "componentType": 5126,
      "count": 10,
      "max": [
        1.0,
        -7.356551170349121,
        5.655282974243164
      ],
      "min": [
        0.3802202045917511,
        -10.440460205078125,
        0.02776104025542736
      ],
      "type": "VEC3"
    },
    {
      "bufferView": 2,
      "byteOffset": 5136,
      "componentType": 5126,
      "count": 10,
      "max": [
        1.0,
        0.0,
        0.0
      ],
      "min": [
        0.017490679398179054,
        0.0,
        -0.9998471140861511
      ],
      "type": "VEC3"
    },
    {
      "bufferView": 1,
      "byteOffset": 1672,
      "componentType": 5126,
      "count": 10,
      "max": [
        0.993399977684021,
        0.9951372742652893
      ],
      "min": [
        0.0015969269443303347,
        0.009900808334350586
      ],
      "type": "VEC2"
    },
    {
      "bufferView": 0,
      "byteOffset": 1248,
      "componentType": 5125,
      "count": 12,
      "type": "SCALAR"
    },
    {
      "bufferView": 2,
      "byteOffset": 5256,
      "componentType": 5126,
      "count": 64,
      "max": [
        1.6514309644699097,
        30.382400512695313,
        8.232332229614258
      ],
      "min": [
        -14.256830215454102,
        -17.123409271240234,
        5.587585926055908
      ],
      "type": "VEC3"
    },
    {
      "bufferView": 2,
      "byteOffset": 6024,
      "componentType": 5126,
      "count": 64,
      "max": [
        1.0,
        1.0,
        1.0
      ],
      "min": [
        -1.0,
        -1.0,
        -1.0
      ],
      "type": "VEC3"
    },
    {
      "bufferView": 1,
      "byteOffset": 1752,
      "componentType": 5126,
      "count": 64,
      "max": [
        0.875,
        1.0
      ],
      "min": [
        0.125,
        0.0
      ],
      "type": "VEC2"
    },
    {
      "bufferView": 0,
      "byteOffset": 1296,
      "componentType": 5125,
      "count": 102,
      "type": "SCALAR"
    },
    {
      "bufferView": 2,
      "byteOffset": 6792,
      "componentType": 5126,
      "count": 4,
      "max": [
        0.5621463060379028,
        28.764230728149414,
        5.626396179199219
      ],
      "min": [
        0.5621463060379028,
        -6.881746768951416,
        1.431604027748108
      ],
      "type": "VEC3"
    },
    {
      "bufferView": 2,
      "byteOffset": 6840,
      "componentType": 5126,
      "count": 4,
      "max": [
        1.0,
        0.0,
        0.0
      ],
      "min": [
        1.0,
        0.0,
        0.0
      ],
      "type": "VEC3"
    },
    {
      "bufferView": 1,
      "byteOffset": 2264,
      "componentType": 5126,
      "count": 4,
      "max": [
        1.8814690113067627,
        0.9863978028297424
      ],
      "min": [
        -0.8782684803009033,
        0.015339669771492481
      ],
      "type": "VEC2"
    },
    {
      "bufferView": 0,
      "byteOffset": 1704,
      "componentType": 5125,
      "count": 6,
      "type": "SCALAR"
    },
    {
      "bufferView": 2,
      "byteOffset": 6888,
      "componentType": 5126,
      "count": 10,
      "max": [
        1.1135629415512085,
        -10.63798999786377,
        4.238622188568115
      ],
      "min": [
        1.1135629415512085,
        -11.945859909057617,
        2.6083741188049316
      ],
      "type": "VEC3"
    },
    {
      "bufferView": 2,
      "byteOffset": 7008,
      "componentType": 5126,
      "count": 10,
      "max": [
        1.0,
        4.126590056330315e-07,
        0.0
      ],
      "min": [
        1.0,
        0.0,
        0.0
      ],
      "type": "VEC3"
    },
    {
      "bufferView": 1,
      "byteOffset": 2296,
      "componentType": 5126,
      "count": 10,
      "max": [
        0.9934555888175964,
        1.000143051147461
      ],
      "min": [
        0.016143670305609703,
        0.03166627138853073
      ],
      "type": "VEC2"
    },
    {
      "bufferView": 0,
      "byteOffset": 1728,
      "componentType": 5125,
      "count": 15,
      "type": "SCALAR"
    },
    {
      "bufferView": 2,
      "byteOffset": 7128,
      "componentType": 5126,
      "count": 57,
      "max": [
        4.296957015991211,
        -7.3094072341918945,
        0.039697278290987015
      ],
      "min": [
        0.3828915059566498,
        -10.439459800720215,
        -0.26414358615875244
      ],
      "type": "VEC3"
    },
    {
      "bufferView": 2,
      "byteOffset": 7812,
      "componentType": 5126,
      "count": 57,
      "max": [
        1.0,
        1.0,
        1.0
      ],
      "min": [
        -1.0,
        -1.0,
        -1.0
      ],
      "type": "VEC3"
    },
    {
      "bufferView": 1,
      "byteOffset": 2376,
      "componentType": 5126,
      "count": 57,
      "max": [
        0.875,
        1.0
      ],
      "min": [
        0.125,
        0.0
      ],
      "type": "VEC2"
    },
    {
      "bufferView": 0,
      "byteOffset": 1788,
      "componentType": 5125,
      "count": 84,
      "type": "SCALAR"
    },
    {
      "bufferView": 2,
      "byteOffset": 8496,
      "componentType": 5126,
      "count": 4,
      "max": [
        1.6514309644699097,
        10.484330177307129,
        8.232332229614258
      ],
      "min": [
        1.6514309644699097,
        0.7290968894958496,
        5.587585926055908
      ],
      "type": "VEC3"
    },
    {
      "bufferView": 2,
      "byteOffset": 8544,
      "componentType": 5126,
      "count": 4,
      "max": [
        1.0,
        0.0,
        0.0
      ],
      "min": [
        1.0,
        0.0,
        0.0
      ],
      "type": "VEC3"
    },
    {
      "bufferView": 1,
      "byteOffset": 2832,
      "componentType": 5126,
      "count": 4,
      "max": [
        0.9979085922241211,
        0.9975700974464417
      ],
      "min": [
        0.0020915260538458824,
        -0.003407238982617855
      ],
      "type": "VEC2"
    },
    {
      "bufferView": 0,
      "byteOffset": 2124,
      "componentType": 5125,
      "count": 6,
      "type": "SCALAR"
    },
    {
      "bufferView": 2,
      "byteOffset": 8592,
      "componentType": 5126,
      "count": 5,
      "max": [
        1.1158699989318848,
        -12.317350387573242,
        4.262907981872559
      ],
      "min": [
        1.1158699989318848,
        -13.67588996887207,
        2.5959060192108154
      ],
      "type": "VEC3"
    },
    {
      "bufferView": 2,
      "byteOffset": 8652,
      "componentType": 5126,
      "count": 5,
      "max": [
        1.0,
        0.0,
        0.0
      ],
      "min": [
        1.0,
        0.0,
        0.0
      ],
      "type": "VEC3"
    },
    {
      "bufferView": 1,
      "byteOffset": 2864,
      "componentType": 5126,
      "count": 5,
      "max": [
        0.9453181028366089,
        1.0071929693222046
      ],
      "min": [
        0.05177222937345505,
        0.0019520519999787211
      ],
      "type": "VEC2"
    },
    {
      "bufferView": 0,
      "byteOffset": 2148,
      "componentType": 5125,
      "count": 9,
      "type": "SCALAR"
    },
    {
      "bufferView": 2,
      "byteOffset": 8712,
      "componentType": 5126,
      "count": 4,
      "max": [
        0.4934878945350647,
        29.529380798339844,
        11.95995044708252
      ],
      "min": [
        0.4934878945350647,
        -16.529220581054688,
        7.783510208129883
      ],
      "type": "VEC3"
    },
    {
      "bufferView": 2,
      "byteOffset": 8760,
      "componentType": 5126,
      "count": 4,
      "max": [
        1.0,
        0.0,
        0.0
      ],
      "min": [
        1.0,
        0.0,
        0.0
      ],
      "type": "VEC3"
    },
    {
      "bufferView": 1,
      "byteOffset": 2904,
      "componentType": 5126,
      "count": 4,
      "max": [
        1.7174830436706543,
        0.9674969911575317
      ],
      "min": [
        -0.09453099220991135,
        -0.0040436978451907635
      ],
      "type": "VEC2"
    },
    {
      "bufferView": 0,
      "byteOffset": 2184,
      "componentType": 5125,
      "count": 6,
      "type": "SCALAR"
    },
    {
      "bufferView": 2,
      "byteOffset": 8808,
      "componentType": 5126,
      "count": 75,
      "max": [
        1.5257129669189453,
        30.331390380859375,
        15.109709739685059
      ],
      "min": [
        -14.26438045501709,
        -17.151630401611328,
        12.020919799804688
      ],
      "type": "VEC3"
    },
    {
      "bufferView": 2,
      "byteOffset": 9708,
      "componentType": 5126,
      "count": 75,
      "max": [
        1.0,
        1.0,
        0.9999992847442627
      ],
      "min": [
        -1.0,
        -1.0,
        -0.9999992847442627
      ],
      "type": "VEC3"
    },
    {
      "bufferView": 1,
      "byteOffset": 2936,
      "componentType": 5126,
      "count": 75,
      "max": [
        0.875,
        1.0
      ],
      "min": [
        0.125,
        0.0
      ],
      "type": "VEC2"
    },
    {
      "bufferView": 0,
      "byteOffset": 2208,
      "componentType": 5125,
      "count": 102,
      "type": "SCALAR"
    },
    {
      "bufferView": 2,
      "byteOffset": 10608,
      "componentType": 5126,
      "count": 4,
      "max": [
        1.5257129669189453,
        11.688179969787598,
        15.109709739685059
      ],
      "min": [
        1.5257129669189453,
        0.21222199499607086,
        12.072600364685059
      ],
      "type": "VEC3"
    },
    {
      "bufferView": 2,
      "byteOffset": 10656,
      "componentType": 5126,
      "count": 4,
      "max": [
        1.0,
        0.0,
        0.0
      ],
      "min": [
        1.0,
        0.0,
        0.0
      ],
      "type": "VEC3"
    },
    {
      "bufferView": 1,
      "byteOffset": 3536,
      "componentType": 5126,
      "count": 4,
      "max": [
        1.028959035873413,
        0.9978641867637634
      ],
      "min": [
        -0.028960460796952248,
        -0.006071149837225676
      ],
      "type": "VEC2"
    },
    {
      "bufferView": 0,
      "byteOffset": 2616,
      "componentType": 5125,
      "count": 6,
      "type": "SCALAR"
    }
  ],
  "asset": {
    "extras": {
      "author": "Den0l_l (https://sketchfab.com/Den0l_l)",
      "license": "CC-BY-4.0 (http://creativecommons.org/licenses/by/4.0/)",
      "source": "https://sketchfab.com/3d-models/magnet-and-cosmetics-magnet-shop-59835eaab6c1439f95b1af18b362761a",
      "title": "\"Magnet\" and \"cosmetics magnet\" shop"
    },
    "generator": "Sketchfab-16.7.0",
    "version": "2.0"
  },
  "bufferViews": [
    {
      "buffer": 0,
      "byteLength": 2640,
      "name": "floatBufferViews",
      "target": 34963
    },
    {
      "buffer": 0,
      "byteLength": 3568,
      "byteOffset": 2640,
      "byteStride": 8,
      "name": "floatBufferViews",
      "target": 34962
    },
    {
      "buffer": 0,
      "byteLength": 10704,
      "byteOffset": 6208,
      "byteStride": 12,
      "name": "floatBufferViews",
      "target": 34962
    }
  ],
  "buffers": [
    {
      "byteLength": 16912,
      "uri": "scene.bin"
    }
  ],
  "images": [
    {
      "uri": "textures/magnit2_baseColor.jpeg"
    },
    {
      "uri": "textures/magnit4_baseColor.jpeg"
    },
    {
      "uri": "textures/magnit5_baseColor.jpeg"
    },
    {
      "uri": "textures/magnit7_baseColor.jpeg"
    },
    {
      "uri": "textures/magnit8_baseColor.jpeg"
    },
    {
      "uri": "textures/magnit9_baseColor.jpeg"
    },
    {
      "uri": "textures/magnit11_baseColor.jpeg"
    }
  ],
  "materials": [
    {
      "doubleSided": true,
      "name": "magnit1",
      "pbrMetallicRoughness": {
        "baseColorFactor": [
          0.728061,
          0.728061,
          0.728061,
          1.0
        ],
        "metallicFactor": 0.0,
        "roughnessFactor": 0.6
      }
    },
    {
      "doubleSided": true,
      "name": "magnit2",
      "pbrMetallicRoughness": {
        "baseColorTexture": {
          "index": 0
        },
        "metallicFactor": 0.0,
        "roughnessFactor": 0.6
      }
    },
    {
      "doubleSided": true,
      "name": "magnit3",
      "pbrMetallicRoughness": {
        "baseColorFactor": [
          0.8,
          0.00249839,
          0.0,
          1.0
        ],
        "metallicFactor": 0.0,
        "roughnessFactor": 0.6
      }
    },
    {
      "doubleSided": true,
      "name": "magnit4",
      "pbrMetallicRoughness": {
        "baseColorTexture": {
          "index": 1
        },
        "metallicFactor": 0.0,
        "roughnessFactor": 0.6
      }
    },
    {
      "doubleSided": true,
      "name": "magnit5",
      "pbrMetallicRoughness": {
        "baseColorTexture": {
          "index": 2
        },
        "metallicFactor": 0.0,
        "roughnessFactor": 0.6
      }
    },
    {
      "doubleSided": true,
      "name": "magnir6",
      "pbrMetallicRoughness": {
        "baseColorFactor": [
          0.266761,
          0.266761,
          0.266761,
          1.0
        ],
        "metallicFactor": 0.0,
        "roughnessFactor": 0.6
      }
    },
    {
      "doubleSided": true,
      "name": "magnit7",
      "pbrMetallicRoughness": {
        "baseColorTexture": {
          "index": 3
        },
        "metallicFactor": 0.0,
        "roughnessFactor": 0.6
      }
    },
    {
      "doubleSided": true,
      "name": "magnit8",
      "pbrMetallicRoughness": {
        "baseColorTexture": {
          "index": 4
        },
        "metallicFactor": 0.0,
        "roughnessFactor": 0.6
      }
    },
    {
      "doubleSided": true,
      "name": "magnit9",
      "pbrMetallicRoughness": {
        "baseColorTexture": {
          "index": 5
        },
        "metallicFactor": 0.0,
        "roughnessFactor": 0.6
      }
    },
    {
      "doubleSided": true,
      "name": "magnit10",
      "pbrMetallicRoughness": {
        "baseColorFactor": [
          0.8,
          0.0270887,
          0.521156,
          1.0
        ],
        "metallicFactor": 0.0,
        "roughnessFactor": 0.6
      }
    },
    {
      "doubleSided": true,
      "name": "magnit11",
      "pbrMetallicRoughness": {
        "baseColorTexture": {
          "index": 6
        },
        "metallicFactor": 0.0,
        "roughnessFactor": 0.6
      }
    }
  ],
  "meshes": [
    {
      "name": "magnit1-material",
      "primitives": [
        {
          "attributes": {
            "NORMAL": 1,
            "POSITION": 0,
            "TEXCOORD_0": 2
          },
          "indices": 3,
          "material": 0,
          "mode": 4
        }
      ]
    },
    {
      "name": "magnit2-material",
      "primitives": [
        {
          "attributes": {
            "NORMAL": 5,
            "POSITION": 4,
            "TEXCOORD_0": 6
          },
          "indices": 7,
          "material": 1,
          "mode": 4
        }
      ]
    },
    {
      "name": "magnit3-material",
      "primitives": [
        {
          "attributes": {
            "NORMAL": 9,
            "POSITION": 8,
            "TEXCOORD_0": 10
          },
          "indices": 11,
          "material": 2,
          "mode": 4
        }
      ]
    },
    {
      "name": "magnit4-material",
      "primitives": [
        {
          "attributes": {
            "NORMAL": 13,
            "POSITION": 12,
            "TEXCOORD_0": 14
          },
          "indices": 15,
          "material": 3,
          "mode": 4
        }
      ]
    },
    {
      "name": "magnit5-material",
      "primitives": [
        {
          "attributes": {
            "NORMAL": 17,
            "POSITION": 16,
            "TEXCOORD_0": 18
          },
          "indices": 19,
          "material": 4,
          "mode": 4
        }
      ]
    },
    {
      "name": "magnir6-material",
      "primitives": [
        {
          "attributes": {
            "NORMAL": 21,
            "POSITION": 20,
            "TEXCOORD_0": 22
          },
          "indices": 23,
          "material": 5,
          "mode": 4
        }
      ]
    },
    {
      "name": "magnit7-material",
      "primitives": [
        {
          "attributes": {
            "NORMAL": 25,
            "POSITION": 24,
            "TEXCOORD_0": 26
          },
          "indices": 27,
          "material": 6,
          "mode": 4
        }
      ]
    },
    {
      "name": "magnit8-material",
      "primitives": [
        {
          "attributes": {
            "NORMAL": 29,
            "POSITION": 28,
            "TEXCOORD_0": 30
          },
          "indices": 31,
          "material": 7,
          "mode": 4
        }
      ]
    },
    {
      "name": "magnit9-material",
      "primitives": [
        {
          "attributes": {
            "NORMAL": 33,
            "POSITION": 32,
            "TEXCOORD_0": 34
          },
          "indices": 35,
          "material": 8,
          "mode": 4
        }
      ]
    },
    {
      "name": "magnit10-material",
      "primitives": [
        {
          "attributes": {
            "NORMAL": 37,
            "POSITION": 36,
            "TEXCOORD_0": 38
          },
          "indices": 39,
          "material": 9,
          "mode": 4
        }
      ]
    },
    {
      "name": "magnit11-material",
      "primitives": [
        {
          "attributes": {
            "NORMAL": 41,
            "POSITION": 40,
            "TEXCOORD_0": 42
          },
          "indices": 43,
          "material": 10,
          "mode": 4
        }
      ]
    }
  ],
  "nodes": [
    {
      "children": [
        1
      ],
      "matrix": [
        1.0,
        0.0,
        0.0,
        0.0,
        0.0,
        2.220446049250313e-16,
        -1.0,
        0.0,
        0.0,
        1.0,
        2.220446049250313e-16,
        0.0,
        0.0,
        0.0,
        0.0,
        1.0
      ],
      "name": "Sketchfab_model"
    },
    {
      "children": [
        2
      ],
      "name": "Collada visual scene group"
    },
    {
      "children": [
        3,
        4,
        5,
        6,
        7,
        8,
        9,
        10,
        11,
        12,
        13
      ],
      "name": "Cube"
    },
    {
      "mesh": 0,
      "name": "magnit1-material"
    },
    {
      "mesh": 1,
      "name": "magnit2-material"
    },
    {
      "mesh": 2,
      "name": "magnit3-material"
    },
    {
      "mesh": 3,
      "name": "magnit4-material"
    },
    {
      "mesh": 4,
      "name": "magnit5-material"
    },
    {
      "mesh": 5,
      "name": "magnir6-material"
    },
    {
      "mesh": 6,
      "name": "magnit7-material"
    },
    {
      "mesh": 7,
      "name": "magnit8-material"
    },
    {
      "mesh": 8,
      "name": "magnit9-material"
    },
    {
      "mesh": 9,
      "name": "magnit10-material"
    },
    {
      "mesh": 10,
      "name": "magnit11-material"
    }
  ],
  "samplers": [
    {
      "magFilter": 9729,
      "minFilter": 9987,
      "wrapS": 10497,
      "wrapT": 10497
    }
  ],
  "scene": 0,
  "scenes": [
    {
      "name": "Sketchfab_Scene",
      "nodes": [
        0
      ]
    }
  ],
  "textures": [
    {
      "sampler": 0,
      "source": 0
    },
    {
      "sampler": 0,
      "source": 1
    },
    {
      "sampler": 0,
      "source": 2
    },
    {
      "sampler": 0,
      "source": 3
    },
    {
      "sampler": 0,
      "source": 4
    },
    {
      "sampler": 0,
      "source": 5
    },
    {
      "sampler": 0,
      "source": 6
    }
  ]
}
