{
  "accessors": [
    {
      "bufferView": 2,
      "componentType": 5126,
      "count": 7284,
      "max": [
        51.993900299072266,
        48.9724006652832,
        169.59080505371094
      ],
      "min": [
        -51.99330139160156,
        -48.972801208496094,
        -0.008299999870359898
      ],
      "type": "VEC3"
    },
    {
      "bufferView": 2,
      "byteOffset": 87408,
      "componentType": 5126,
      "count": 7284,
      "max": [
        1.0,
        1.0,
        1.0
      ],
      "min": [
        -1.0,
        -1.0,
        -1.0
      ],
      "type": "VEC3"
    },
    {
      "bufferView": 3,
      "componentType": 5126,
      "count": 7284,
      "max": [
        1.0,
        1.0,
        1.0,
        1.0
      ],
      "min": [
        -1.0,
        -1.0,
        -1.0,
        -1.0
      ],
      "type": "VEC4"
    },
    {
      "bufferView": 1,
      "componentType": 5126,
      "count": 7284,
      "max": [
        0.9983000159263611,
        0.9955999851226807
      ],
      "min": [
        0.001500000013038516,
        0.001500000013038516
      ],
      "type": "VEC2"
    },
    {
      "bufferView": 0,
      "componentType": 5125,
      "count": 12876,
      "type": "SCALAR"
    },
    {
      "bufferView": 2,
      "byteOffset": 174816,
      "componentType": 5126,
      "count": 2156,
      "max": [
        51.993900299072266,
        48.9724006652832,
        169.59080505371094
      ],
      "min": [
        -51.99330139160156,
        -48.972801208496094,
        -0.008299999870359898
      ],
      "type": "VEC3"
    },
    {
      "bufferView": 2,
      "byteOffset": 200688,
      "componentType": 5126,
      "count": 2156,
      "max": [
        1.0,
        1.0,
        1.0
      ],
      "min": [
        -1.0,
        -1.0,
        -1.0
      ],
      "type": "VEC3"
    },
    {
      "bufferView": 3,
      "byteOffset": 116544,
      "componentType": 5126,
      "count": 2156,
      "max": [
        1.0,
        1.0,
        1.0,
        1.0
      ],
      "min": [
        -1.0,
        -1.0,
        -1.0,
        -1.0
      ],
      "type": "VEC4"
    },
    {
      "bufferView": 1,
      "byteOffset": 58272,
      "componentType": 5126,
      "count": 2156,
      "max": [
        0.9973000288009644,
        0.9966999888420105
      ],
      "min": [
        0.001500000013038516,
        0.001500000013038516
      ],
      "type": "VEC2"
    },
    {
      "bufferView": 0,
      "byteOffset": 51504,
      "componentType": 5125,
      "count": 5070,
      "type": "SCALAR"
    },
    {
      "bufferView": 2,
      "byteOffset": 226560,
      "componentType": 5126,
      "count": 674,
      "max": [
        51.32550048828125,
        47.85029983520508,
        147.5157928466797
      ],
      "min": [
        -51.3213005065918,
        -30.1560001373291,
        70.53829956054688
      ],
      "type": "VEC3"
    },
    {
      "bufferView": 2,
      "byteOffset": 234648,
      "componentType": 5126,
      "count": 674,
      "max": [
        1.0,
        1.0,
        1.0
      ],
      "min": [
        -1.0,
        -1.0,
        -1.0
      ],
      "type": "VEC3"
    },
    {
      "bufferView": 3,
      "byteOffset": 151040,
      "componentType": 5126,
      "count": 674,
      "max": [
        1.0,
        1.0,
        1.0,
        1.0
      ],
      "min": [
        -1.0,
        -1.0,
        -1.0,
        -1.0
      ],
      "type": "VEC4"
    },
    {
      "bufferView": 1,
      "byteOffset": 75520,
      "componentType": 5126,
      "count": 674,
      "max": [
        0.9969000220298767,
        0.9984999895095825
      ],
      "min": [
        0.001500000013038516,
        0.001500000013038516
      ],
      "type": "VEC2"
    },
    {
      "bufferView": 0,
      "byteOffset": 71784,
      "componentType": 5125,
      "count": 1293,
      "type": "SCALAR"
    }
  ],
  "asset": {
    "extras": {
      "author": "mrsanya333 (https://sketchfab.com/mrsanya333)",
      "license": "CC-BY-4.0 (http://creativecommons.org/licenses/by/4.0/)",
      "source": "https://sketchfab.com/3d-models/soviet-panel-house-75dc0bb868f64b9f920d3b85f307886c",
      "title": "Soviet Panel House"
    },
    "generator": "Sketchfab-16.33.0",
    "version": "2.0"
  },
  "bufferViews": [
    {
      "buffer": 0,
      "byteLength": 76956,
      "name": "floatBufferViews",
      "target": 34963
    },
    {
      "buffer": 0,
      "byteLength": 80912,
      "byteOffset": 76956,
      "byteStride": 8,
      "name": "floatBufferViews",
      "target": 34962
    },
    {
      "buffer": 0,
      "byteLength": 242736,
      "byteOffset": 157868,
      "byteStride": 12,
      "name": "floatBufferViews",
      "target": 34962
    },
    {
      "buffer": 0,
      "byteLength": 161824,
      "byteOffset": 400604,
      "byteStride": 16,
      "name": "floatBufferViews",
      "target": 34962
    }
  ],
  "buffers": [
    {
      "byteLength": 562428,
      "uri": "scene.bin"
    }
  ],
  "extensionsRequired": [
    "KHR_materials_pbrSpecularGlossiness"
  ],
  "extensionsUsed": [
    "KHR_materials_pbrSpecularGlossiness"
  ],
  "images": [
    {
      "uri": "textures/Material__743_diffuse.jpeg"
    },
    {
      "uri": "textures/Material__743_specularGlossiness.png"
    },
    {
      "uri": "textures/Material__743_normal.png"
    },
    {
      "uri": "textures/Material__743_occlusion.png"
    },
    {
      "uri": "textures/Material__764_diffuse.png"
    },
    {
      "uri": "textures/Material__764_emissive.png"
    },
    {
      "uri": "textures/Material__764_normal.png"
    },
    {
      "uri": "textures/Material__764_occlusion.png"
    }
  ],
  "materials": [
    {
      "doubleSided": true,
      "extensions": {
        "KHR_materials_pbrSpecularGlossiness": {
          "diffuseFactor": [
            1.0,
            1.0,
            1.0,
            1.0
          ],
          "diffuseTexture": {
            "index": 0
          },
          "glossinessFactor": 0.830983231707317,
          "specularFactor": [
            1.0,
            1.0,
            1.0
          ],
          "specularGlossinessTexture": {
            "index": 1
          }
        }
      },
      "name": "Material__743",
      "normalTexture": {
        "index": 2
      },
      "occlusionTexture": {
        "index": 3,
        "strength": 0.9285442073170732
      }
    },
    {
      "doubleSided": true,
      "emissiveFactor": [
        0.38300304878048785,
        0.38300304878048785,
        0.38300304878048785
      ],
      "emissiveTexture": {
        "index": 5
      },
      "extensions": {
        "KHR_materials_pbrSpecularGlossiness": {
          "diffuseFactor": [
            1.0,
            1.0,
            1.0,
            1.0
          ],
          "diffuseTexture": {
            "index": 4
          },
          "glossinessFactor": 0.0,
          "specularFactor": [
            0.0,
            0.0,
            0.0
          ]
        }
      },
      "name": "Material__764",
      "normalTexture": {
        "index": 6
      },
      "occlusionTexture": {
        "index": 7
      }
    }
  ],
  "meshes": [
    {
      "name": "Object_0",
      "primitives": [
        {
          "attributes": {
            "NORMAL": 1,
            "POSITION": 0,
            "TANGENT": 2,
            "TEXCOORD_0": 3
          },
          "indices": 4,
          "material": 0,
          "mode": 4
        }
      ]
    },
    {
      "name": "Object_1",
      "primitives": [
        {
          "attributes": {
            "NORMAL": 6,
            "POSITION": 5,
            "TANGENT": 7,
            "TEXCOORD_0": 8
          },
          "indices": 9,
          "material": 0,
          "mode": 4
        }
      ]
    },
    {
      "name": "Object_2",
      "primitives": [
        {
          "attributes": {
            "NORMAL": 11,
            "POSITION": 10,
            "TANGENT": 12,
            "TEXCOORD_0": 13
          },
          "indices": 14,
          "material": 1,
          "mode": 4
        }
      ]
    }
  ],
  "nodes": [
    {
      "children": [
        1
      ],
      "matrix": [
        1.0,
        0.0,
        0.0,
        0.0,
        0.0,
        2.220446049250313e-16,
        -1.0,
        0.0,
        0.0,
        1.0,
        2.220446049250313e-16,
        0.0,
        0.0,
        0.0,
        0.0,
        1.0
      ],
      "name": "Sketchfab_model"
    },
    {
      "children": [
        2,
        3,
        4
      ],
      "name": "house.obj.cleaner.materialmerger.gles"
    },
    {
      "mesh": 0,
      "name": "Object_2"
    },
    {
      "mesh": 1,
      "name": "Object_3"
    },
    {
      "mesh": 2,
      "name": "Object_4"
    }
  ],
  "samplers": [
    {
      "magFilter": 9729,
      "minFilter": 9987,
      "wrapS": 10497,
      "wrapT": 10497
    }
  ],
  "scene": 0,
  "scenes": [
    {
      "name": "Sketchfab_Scene",
      "nodes": [
        0
      ]
    }
  ],
  "textures": [
    {
      "sampler": 0,
      "source": 0
    },
    {
      "sampler": 0,
      "source": 1
    },
    {
      "sampler": 0,
      "source": 2
    },
    {
      "sampler": 0,
      "source": 3
    },
    {
      "sampler": 0,
      "source": 4
    },
    {
      "sampler": 0,
      "source": 5
    },
    {
      "sampler": 0,
      "source": 6
    },
    {
      "sampler": 0,
      "source": 7
    }
  ]
}
