{
  "accessors": [
    {
      "bufferView": 2,
      "componentType": 5126,
      "count": 675,
      "max": [
        0.6705600619316101,
        -0.1533653736114502,
        2.259796619415283
      ],
      "min": [
        -0.6705600619316101,
        -0.25083595514297485,
        0.9186767935752869
      ],
      "type": "VEC3"
    },
    {
      "bufferView": 2,
      "byteOffset": 8100,
      "componentType": 5126,
      "count": 675,
      "max": [
        1.0,
        1.0,
        1.0
      ],
      "min": [
        -0.9999946355819702,
        -0.9974564909934998,
        -1.0
      ],
      "type": "VEC3"
    },
    {
      "bufferView": 3,
      "componentType": 5126,
      "count": 675,
      "max": [
        1.0,
        1.0,
        1.0,
        1.0
      ],
      "min": [
        -1.0,
        -1.0,
        -1.0,
        -1.0
      ],
      "type": "VEC4"
    },
    {
      "bufferView": 1,
      "componentType": 5126,
      "count": 675,
      "max": [
        0.8820641040802002,
        1.0245296955108643
      ],
      "min": [
        -2.2853409831213867e-08,
        -3.7426030985443504e-07
      ],
      "type": "VEC2"
    },
    {
      "bufferView": 1,
      "byteOffset": 5400,
      "componentType": 5126,
      "count": 675,
      "max": [
        0.8820641040802002,
        1.0245296955108643
      ],
      "min": [
        -2.2853409831213867e-08,
        -3.7426030985443504e-07
      ],
      "type": "VEC2"
    },
    {
      "bufferView": 1,
      "byteOffset": 10800,
      "componentType": 5126,
      "count": 675,
      "max": [
        0.8820641040802002,
        1.0245296955108643
      ],
      "min": [
        -2.2853409831213867e-08,
        -3.7426030985443504e-07
      ],
      "type": "VEC2"
    },
    {
      "bufferView": 0,
      "componentType": 5125,
      "count": 1530,
      "type": "SCALAR"
    },
    {
      "bufferView": 2,
      "byteOffset": 16200,
      "componentType": 5126,
      "count": 28,
      "max": [
        0.6361895203590393,
        -0.18474379181861877,
        2.2224695682525635
      ],
      "min": [
        -0.6361895203590393,
        -0.19474385678768158,
        0.9560041427612305
      ],
      "type": "VEC3"
    },
    {
      "bufferView": 2,
      "byteOffset": 16536,
      "componentType": 5126,
      "count": 28,
      "max": [
        1.0,
        1.0,
        1.0
      ],
      "min": [
        -1.0,
        -1.0,
        -1.0
      ],
      "type": "VEC3"
    },
    {
      "bufferView": 3,
      "byteOffset": 10800,
      "componentType": 5126,
      "count": 28,
      "max": [
        1.0,
        0.0,
        0.0,
        1.0
      ],
      "min": [
        1.0,
        0.0,
        0.0,
        -1.0
      ],
      "type": "VEC4"
    },
    {
      "bufferView": 1,
      "byteOffset": 16200,
      "componentType": 5126,
      "count": 28,
      "max": [
        1.0,
        0.5317457318305969
      ],
      "min": [
        0.47352030873298645,
        -2.502596174736027e-08
      ],
      "type": "VEC2"
    },
    {
      "bufferView": 1,
      "byteOffset": 16424,
      "componentType": 5126,
      "count": 28,
      "max": [
        1.0,
        0.5317457318305969
      ],
      "min": [
        0.47352030873298645,
        -2.502596174736027e-08
      ],
      "type": "VEC2"
    },
    {
      "bufferView": 1,
      "byteOffset": 16648,
      "componentType": 5126,
      "count": 28,
      "max": [
        1.0,
        0.5317457318305969
      ],
      "min": [
        0.47352030873298645,
        -2.502596174736027e-08
      ],
      "type": "VEC2"
    },
    {
      "bufferView": 0,
      "byteOffset": 6120,
      "componentType": 5125,
      "count": 36,
      "type": "SCALAR"
    }
  ],
  "asset": {
    "extras": {
      "author": "MarkoJantti (https://sketchfab.com/MarkoJantti)",
      "license": "CC-BY-4.0 (http://creativecommons.org/licenses/by/4.0/)",
      "source": "https://sketchfab.com/3d-models/free-dirty-low-poly-window-e824afffe5e64571a8ed40a5e06af362",
      "title": "Free Dirty Low Poly Window"
    },
    "generator": "Sketchfab-16.44.0",
    "version": "2.0"
  },
  "bufferViews": [
    {
      "buffer": 0,
      "byteLength": 6264,
      "name": "floatBufferViews",
      "target": 34963
    },
    {
      "buffer": 0,
      "byteLength": 16872,
      "byteOffset": 6264,
      "byteStride": 8,
      "name": "floatBufferViews",
      "target": 34962
    },
    {
      "buffer": 0,
      "byteLength": 16872,
      "byteOffset": 23136,
      "byteStride": 12,
      "name": "floatBufferViews",
      "target": 34962
    },
    {
      "buffer": 0,
      "byteLength": 11248,
      "byteOffset": 40008,
      "byteStride": 16,
      "name": "floatBufferViews",
      "target": 34962
    }
  ],
  "buffers": [
    {
      "byteLength": 51256,
      "uri": "scene.bin"
    }
  ],
  "images": [
    {
      "uri": "textures/Window_Painted_baseColor.png"
    },
    {
      "uri": "textures/Window_Painted_metallicRoughness.png"
    },
    {
      "uri": "textures/Window_Painted_normal.png"
    },
    {
      "uri": "textures/Glass01_baseColor.png"
    },
    {
      "uri": "textures/Glass01_metallicRoughness.png"
    },
    {
      "uri": "textures/Glass01_normal.png"
    }
  ],
  "materials": [
    {
      "doubleSided": true,
      "name": "Window_Painted",
      "normalTexture": {
        "index": 2
      },
      "pbrMetallicRoughness": {
        "baseColorTexture": {
          "index": 0
        },
        "metallicFactor": 0.0,
        "metallicRoughnessTexture": {
          "index": 1
        }
      }
    },
    {
      "alphaMode": "BLEND",
      "doubleSided": true,
      "name": "Glass01",
      "normalTexture": {
        "index": 5
      },
      "pbrMetallicRoughness": {
        "baseColorFactor": [
          1.0,
          1.0,
          1.0,
          0.4308800213055889
        ],
        "baseColorTexture": {
          "index": 3
        },
        "metallicRoughnessTexture": {
          "index": 4
        }
      }
    }
  ],
  "meshes": [
    {
      "name": "Window_Frame_Window_Painted_0",
      "primitives": [
        {
          "attributes": {
            "NORMAL": 1,
            "POSITION": 0,
            "TANGENT": 2,
            "TEXCOORD_0": 3,
            "TEXCOORD_1": 4,
            "TEXCOORD_2": 5
          },
          "indices": 6,
          "material": 0,
          "mode": 4
        }
      ]
    },
    {
      "name": "Glass_Glass01_0",
      "primitives": [
        {
          "attributes": {
            "NORMAL": 8,
            "POSITION": 7,
            "TANGENT": 9,
            "TEXCOORD_0": 10,
            "TEXCOORD_1": 11,
            "TEXCOORD_2": 12
          },
          "indices": 13,
          "material": 1,
          "mode": 4
        }
      ]
    }
  ],
  "nodes": [
    {
      "children": [
        1
      ],
      "matrix": [
        1.0,
        0.0,
        0.0,
        0.0,
        0.0,
        2.220446049250313e-16,
        -1.0,
        0.0,
        0.0,
        1.0,
        2.220446049250313e-16,
        0.0,
        0.0,
        0.0,
        0.0,
        1.0
      ],
      "name": "Sketchfab_model"
    },
    {
      "children": [
        2
      ],
      "matrix": [
        1.0,
        0.0,
        0.0,
        0.0,
        0.0,
        0.0,
        1.0,
        0.0,
        0.0,
        -1.0,
        0.0,
        0.0,
        0.0,
        0.0,
        0.0,
        1.0
      ],
      "name": "30ea91b808664b0c9a7182671320c26b.fbx"
    },
    {
      "children": [
        3
      ],
      "name": "RootNode"
    },
    {
      "children": [
        4,
        5
      ],
      "matrix": [
        1.0,
        0.0,
        0.0,
        0.0,
        0.0,
        -1.6292067939183141e-07,
        -0.9999999999999868,
        0.0,
        0.0,
        0.9999999999999868,
        -1.6292067939183141e-07,
        0.0,
        0.0,
        0.0,
        0.0,
        1.0
      ],
      "name": "Window_Frame"
    },
    {
      "mesh": 0,
      "name": "Window_Frame_Window_Painted_0"
    },
    {
      "children": [
        6
      ],
      "matrix": [
        1.0,
        0.0,
        0.0,
        0.0,
        0.0,
        1.0,
        -2.646977960169688e-23,
        0.0,
        0.0,
        2.646977960169688e-23,
        1.0,
        0.0,
        0.0,
        0.0,
        0.0,
        1.0
      ],
      "name": "Glass"
    },
    {
      "mesh": 1,
      "name": "Glass_Glass01_0"
    }
  ],
  "samplers": [
    {
      "magFilter": 9729,
      "minFilter": 9987,
      "wrapS": 10497,
      "wrapT": 10497
    }
  ],
  "scene": 0,
  "scenes": [
    {
      "name": "Sketchfab_Scene",
      "nodes": [
        0
      ]
    }
  ],
  "textures": [
    {
      "sampler": 0,
      "source": 0
    },
    {
      "sampler": 0,
      "source": 1
    },
    {
      "sampler": 0,
      "source": 2
    },
    {
      "sampler": 0,
      "source": 3
    },
    {
      "sampler": 0,
      "source": 4
    },
    {
      "sampler": 0,
      "source": 5
    }
  ]
}
