{
  "accessors": [
    {
      "bufferView": 2,
      "componentType": 5126,
      "count": 112,
      "max": [
        299.2520751953125,
        140.35699462890625,
        111.88932800292969
      ],
      "min": [
        -299.2520751953125,
        -100.56605529785156,
        -111.88143157958984
      ],
      "type": "VEC3"
    },
    {
      "bufferView": 2,
      "byteOffset": 1344,
      "componentType": 5126,
      "count": 112,
      "max": [
        1.0,
        1.0,
        1.0
      ],
      "min": [
        -1.0,
        -1.0,
        -1.0
      ],
      "type": "VEC3"
    },
    {
      "bufferView": 1,
      "componentType": 5126,
      "count": 112,
      "max": [
        0.9939749836921692,
        0.9990423917770386
      ],
      "min": [
        0.125,
        0.0009576848242431879
      ],
      "type": "VEC2"
    },
    {
      "bufferView": 0,
      "componentType": 5125,
      "count": 216,
      "type": "SCALAR"
    },
    {
      "bufferView": 2,
      "byteOffset": 2688,
      "componentType": 5126,
      "count": 570,
      "max": [
        301.3777160644531,
        60.44221496582031,
        100.15824890136719
      ],
      "min": [
        -301.37774658203125,
        -89.55778503417969,
        -100.15824890136719
      ],
      "type": "VEC3"
    },
    {
      "bufferView": 2,
      "byteOffset": 9528,
      "componentType": 5126,
      "count": 570,
      "max": [
        1.0,
        1.0,
        1.0
      ],
      "min": [
        -1.0,
        -1.0,
        -1.0
      ],
      "type": "VEC3"
    },
    {
      "bufferView": 1,
      "byteOffset": 896,
      "componentType": 5126,
      "count": 570,
      "max": [
        0.9919856190681458,
        0.996585488319397
      ],
      "min": [
        0.1702362596988678,
        0.0034145647659897804
      ],
      "type": "VEC2"
    },
    {
      "bufferView": 0,
      "byteOffset": 864,
      "componentType": 5125,
      "count": 840,
      "type": "SCALAR"
    },
    {
      "bufferView": 2,
      "byteOffset": 16368,
      "componentType": 5126,
      "count": 720,
      "max": [
        201.75437927246094,
        73.10888671875,
        86.67236328125
      ],
      "min": [
        -201.7543487548828,
        -76.89111328125,
        -86.67236328125
      ],
      "type": "VEC3"
    },
    {
      "bufferView": 2,
      "byteOffset": 25008,
      "componentType": 5126,
      "count": 720,
      "max": [
        1.0,
        1.0,
        1.0
      ],
      "min": [
        -1.0,
        -1.0,
        -1.0
      ],
      "type": "VEC3"
    },
    {
      "bufferView": 1,
      "byteOffset": 5456,
      "componentType": 5126,
      "count": 720,
      "max": [
        0.9939494729042053,
        0.9932171106338501
      ],
      "min": [
        0.1724730283021927,
        0.006782858166843653
      ],
      "type": "VEC2"
    },
    {
      "bufferView": 0,
      "byteOffset": 4224,
      "componentType": 5125,
      "count": 1008,
      "type": "SCALAR"
    },
    {
      "bufferView": 2,
      "byteOffset": 33648,
      "componentType": 5126,
      "count": 600,
      "max": [
        135.9216766357422,
        64.55928039550781,
        64.93025970458984
      ],
      "min": [
        -352.1863098144531,
        -114.32109832763672,
        -120.02249908447266
      ],
      "type": "VEC3"
    },
    {
      "bufferView": 2,
      "byteOffset": 40848,
      "componentType": 5126,
      "count": 600,
      "max": [
        1.0,
        1.0,
        1.0
      ],
      "min": [
        -1.0,
        -1.0,
        -1.0
      ],
      "type": "VEC3"
    },
    {
      "bufferView": 1,
      "byteOffset": 11216,
      "componentType": 5126,
      "count": 600,
      "max": [
        0.32558944821357727,
        0.9902995824813843
      ],
      "min": [
        0.025690926238894463,
        0.5122950673103333
      ],
      "type": "VEC2"
    },
    {
      "bufferView": 0,
      "byteOffset": 8256,
      "componentType": 5125,
      "count": 900,
      "type": "SCALAR"
    },
    {
      "bufferView": 2,
      "byteOffset": 48048,
      "componentType": 5126,
      "count": 960,
      "max": [
        266.697509765625,
        24.599889755249023,
        91.9634017944336
      ],
      "min": [
        -316.6396179199219,
        -24.599868774414063,
        -92.9893569946289
      ],
      "type": "VEC3"
    },
    {
      "bufferView": 2,
      "byteOffset": 59568,
      "componentType": 5126,
      "count": 960,
      "max": [
        1.0,
        1.0,
        1.0
      ],
      "min": [
        -1.0,
        -1.0,
        -1.0
      ],
      "type": "VEC3"
    },
    {
      "bufferView": 1,
      "byteOffset": 16016,
      "componentType": 5126,
      "count": 960,
      "max": [
        0.6590320467948914,
        0.48797059059143066
      ],
      "min": [
        0.35883277654647827,
        0.009486994706094265
      ],
      "type": "VEC2"
    },
    {
      "bufferView": 0,
      "byteOffset": 11856,
      "componentType": 5125,
      "count": 1440,
      "type": "SCALAR"
    },
    {
      "bufferView": 2,
      "byteOffset": 71088,
      "componentType": 5126,
      "count": 480,
      "max": [
        212.3060302734375,
        24.599889755249023,
        75.86551666259766
      ],
      "min": [
        -69.02151489257813,
        -24.599870681762695,
        -109.08724212646484
      ],
      "type": "VEC3"
    },
    {
      "bufferView": 2,
      "byteOffset": 76848,
      "componentType": 5126,
      "count": 480,
      "max": [
        1.0,
        1.0,
        1.0
      ],
      "min": [
        -1.0,
        -1.0,
        -1.0
      ],
      "type": "VEC3"
    },
    {
      "bufferView": 1,
      "byteOffset": 23696,
      "componentType": 5126,
      "count": 480,
      "max": [
        0.658881664276123,
        0.9939303994178772
      ],
      "min": [
        0.3589830696582794,
        0.5122950673103333
      ],
      "type": "VEC2"
    },
    {
      "bufferView": 0,
      "byteOffset": 17616,
      "componentType": 5125,
      "count": 720,
      "type": "SCALAR"
    },
    {
      "bufferView": 2,
      "byteOffset": 82608,
      "componentType": 5126,
      "count": 480,
      "max": [
        68.46237182617188,
        21.004718780517578,
        70.97173309326172
      ],
      "min": [
        -213.7349853515625,
        -21.004629135131836,
        -110.3465805053711
      ],
      "type": "VEC3"
    },
    {
      "bufferView": 2,
      "byteOffset": 88368,
      "componentType": 5126,
      "count": 480,
      "max": [
        1.0,
        1.0,
        1.0
      ],
      "min": [
        -1.0,
        -1.0,
        -1.0
      ],
      "type": "VEC3"
    },
    {
      "bufferView": 1,
      "byteOffset": 27536,
      "componentType": 5126,
      "count": 480,
      "max": [
        0.9938744306564331,
        0.49935564398765564
      ],
      "min": [
        0.69367516040802,
        0.020872041583061218
      ],
      "type": "VEC2"
    },
    {
      "bufferView": 0,
      "byteOffset": 20496,
      "componentType": 5125,
      "count": 720,
      "type": "SCALAR"
    },
    {
      "bufferView": 2,
      "byteOffset": 94128,
      "componentType": 5126,
      "count": 1320,
      "max": [
        378.78253173828125,
        126.177978515625,
        94.3691635131836
      ],
      "min": [
        -199.73512268066406,
        -104.15401458740234,
        -94.48735046386719
      ],
      "type": "VEC3"
    },
    {
      "bufferView": 2,
      "byteOffset": 109968,
      "componentType": 5126,
      "count": 1320,
      "max": [
        1.0,
        1.0,
        1.0
      ],
      "min": [
        -1.0,
        -1.0,
        -1.0
      ],
      "type": "VEC3"
    },
    {
      "bufferView": 1,
      "byteOffset": 31376,
      "componentType": 5126,
      "count": 1320,
      "max": [
        0.9963648915290833,
        0.996575653553009
      ],
      "min": [
        0.6876246333122253,
        0.5171743631362915
      ],
      "type": "VEC2"
    },
    {
      "bufferView": 0,
      "byteOffset": 23376,
      "componentType": 5125,
      "count": 1980,
      "type": "SCALAR"
    },
    {
      "bufferView": 2,
      "byteOffset": 125808,
      "componentType": 5126,
      "count": 140,
      "max": [
        223.5737762451172,
        140.35699462890625,
        317.8741149902344
      ],
      "min": [
        -223.54498291015625,
        -100.56605529785156,
        -317.8611145019531
      ],
      "type": "VEC3"
    },
    {
      "bufferView": 2,
      "byteOffset": 127488,
      "componentType": 5126,
      "count": 140,
      "max": [
        0.9107168912887573,
        1.0,
        0.9107173085212708
      ],
      "min": [
        -0.9107170104980469,
        -1.0,
        -0.9107173085212708
      ],
      "type": "VEC3"
    },
    {
      "bufferView": 1,
      "byteOffset": 41936,
      "componentType": 5126,
      "count": 140,
      "max": [
        0.9939749836921692,
        0.9990423917770386
      ],
      "min": [
        0.125,
        0.0009576848242431879
      ],
      "type": "VEC2"
    },
    {
      "bufferView": 0,
      "byteOffset": 31296,
      "componentType": 5125,
      "count": 216,
      "type": "SCALAR"
    },
    {
      "bufferView": 2,
      "byteOffset": 129168,
      "componentType": 5126,
      "count": 720,
      "max": [
        162.26463317871094,
        73.10888671875,
        219.53939819335938
      ],
      "min": [
        -162.2650146484375,
        -76.89111328125,
        -219.5395965576172
      ],
      "type": "VEC3"
    },
    {
      "bufferView": 2,
      "byteOffset": 137808,
      "componentType": 5126,
      "count": 720,
      "max": [
        0.9107935428619385,
        1.0,
        0.9315598011016846
      ],
      "min": [
        -0.9107937216758728,
        -1.0,
        -0.9315932393074036
      ],
      "type": "VEC3"
    },
    {
      "bufferView": 1,
      "byteOffset": 43056,
      "componentType": 5126,
      "count": 720,
      "max": [
        0.9939494729042053,
        0.9932171106338501
      ],
      "min": [
        0.1724730283021927,
        0.006782858166843653
      ],
      "type": "VEC2"
    },
    {
      "bufferView": 0,
      "byteOffset": 32160,
      "componentType": 5125,
      "count": 1008,
      "type": "SCALAR"
    },
    {
      "bufferView": 2,
      "byteOffset": 146448,
      "componentType": 5126,
      "count": 600,
      "max": [
        215.69430541992188,
        60.44221496582031,
        315.8382873535156
      ],
      "min": [
        -215.6941375732422,
        -89.55778503417969,
        -315.8382568359375
      ],
      "type": "VEC3"
    },
    {
      "bufferView": 2,
      "byteOffset": 153648,
      "componentType": 5126,
      "count": 600,
      "max": [
        0.9315583109855652,
        1.0,
        0.910742998123169
      ],
      "min": [
        -0.9315533638000488,
        -1.0,
        -0.9108156561851501
      ],
      "type": "VEC3"
    },
    {
      "bufferView": 1,
      "byteOffset": 48816,
      "componentType": 5126,
      "count": 600,
      "max": [
        0.9919856190681458,
        0.996585488319397
      ],
      "min": [
        0.1702362596988678,
        0.0034145647659897804
      ],
      "type": "VEC2"
    },
    {
      "bufferView": 0,
      "byteOffset": 36192,
      "componentType": 5125,
      "count": 840,
      "type": "SCALAR"
    },
    {
      "bufferView": 2,
      "byteOffset": 160848,
      "componentType": 5126,
      "count": 600,
      "max": [
        114.84451293945313,
        64.55928039550781,
        173.3592529296875
      ],
      "min": [
        -115.27285766601563,
        -114.32109832763672,
        -340.9875183105469
      ],
      "type": "VEC3"
    },
    {
      "bufferView": 2,
      "byteOffset": 168048,
      "componentType": 5126,
      "count": 600,
      "max": [
        0.9107180237770081,
        1.0,
        0.9107174277305603
      ],
      "min": [
        -0.9107178449630737,
        -1.0,
        -0.9107173681259155
      ],
      "type": "VEC3"
    },
    {
      "bufferView": 1,
      "byteOffset": 53616,
      "componentType": 5126,
      "count": 600,
      "max": [
        0.32558944821357727,
        0.9902995824813843
      ],
      "min": [
        0.025690926238894463,
        0.5122950673103333
      ],
      "type": "VEC2"
    },
    {
      "bufferView": 0,
      "byteOffset": 39552,
      "componentType": 5125,
      "count": 900,
      "type": "SCALAR"
    },
    {
      "bufferView": 2,
      "byteOffset": 175248,
      "componentType": 5126,
      "count": 480,
      "max": [
        127.85542297363281,
        24.599889755249023,
        175.94798278808594
      ],
      "min": [
        -140.08302307128906,
        -24.599870681762695,
        -94.193603515625
      ],
      "type": "VEC3"
    },
    {
      "bufferView": 2,
      "byteOffset": 181008,
      "componentType": 5126,
      "count": 480,
      "max": [
        0.9107178449630737,
        1.0,
        0.9107173085212708
      ],
      "min": [
        -0.9107176661491394,
        -1.0,
        -0.9107173681259155
      ],
      "type": "VEC3"
    },
    {
      "bufferView": 1,
      "byteOffset": 58416,
      "componentType": 5126,
      "count": 480,
      "max": [
        0.658881664276123,
        0.9939303994178772
      ],
      "min": [
        0.3589830696582794,
        0.5122950673103333
      ],
      "type": "VEC2"
    },
    {
      "bufferView": 0,
      "byteOffset": 43152,
      "componentType": 5125,
      "count": 720,
      "type": "SCALAR"
    },
    {
      "bufferView": 2,
      "byteOffset": 186768,
      "componentType": 5126,
      "count": 480,
      "max": [
        94.86251068115234,
        21.004718780517578,
        107.92626953125
      ],
      "min": [
        -92.91220092773438,
        -21.004629135131836,
        -221.76145935058594
      ],
      "type": "VEC3"
    },
    {
      "bufferView": 2,
      "byteOffset": 192528,
      "componentType": 5126,
      "count": 480,
      "max": [
        0.9107171297073364,
        1.0,
        0.9107171297073364
      ],
      "min": [
        -0.9107177257537842,
        -1.0,
        -0.9107171893119812
      ],
      "type": "VEC3"
    },
    {
      "bufferView": 1,
      "byteOffset": 62256,
      "componentType": 5126,
      "count": 480,
      "max": [
        0.9938744306564331,
        0.49935564398765564
      ],
      "min": [
        0.69367516040802,
        0.020872041583061218
      ],
      "type": "VEC2"
    },
    {
      "bufferView": 0,
      "byteOffset": 46032,
      "componentType": 5125,
      "count": 720,
      "type": "SCALAR"
    },
    {
      "bufferView": 2,
      "byteOffset": 198288,
      "componentType": 5126,
      "count": 960,
      "max": [
        215.4691925048828,
        24.599889755249023,
        281.29327392578125
      ],
      "min": [
        -193.90682983398438,
        -24.599868774414063,
        -326.3528747558594
      ],
      "type": "VEC3"
    },
    {
      "bufferView": 2,
      "byteOffset": 209808,
      "componentType": 5126,
      "count": 960,
      "max": [
        0.9107173681259155,
        1.0,
        0.9107176065444946
      ],
      "min": [
        -0.9107173681259155,
        -1.0,
        -0.9107176065444946
      ],
      "type": "VEC3"
    },
    {
      "bufferView": 1,
      "byteOffset": 66096,
      "componentType": 5126,
      "count": 960,
      "max": [
        0.6590320467948914,
        0.48797059059143066
      ],
      "min": [
        0.35883277654647827,
        0.009486994706094265
      ],
      "type": "VEC2"
    },
    {
      "bufferView": 0,
      "byteOffset": 48912,
      "componentType": 5125,
      "count": 1440,
      "type": "SCALAR"
    },
    {
      "bufferView": 2,
      "byteOffset": 221328,
      "componentType": 5126,
      "count": 24,
      "max": [
        12.002205848693848,
        24.59988021850586,
        18.561100006103516
      ],
      "min": [
        -12.002229690551758,
        -24.59987449645996,
        -18.561100006103516
      ],
      "type": "VEC3"
    },
    {
      "bufferView": 2,
      "byteOffset": 221616,
      "componentType": 5126,
      "count": 24,
      "max": [
        0.9634841680526733,
        1.0,
        0.9634845852851868
      ],
      "min": [
        -0.9634842872619629,
        -1.0,
        -0.9634842276573181
      ],
      "type": "VEC3"
    },
    {
      "bufferView": 1,
      "byteOffset": 73776,
      "componentType": 5126,
      "count": 24,
      "max": [
        0.32558944821357727,
        0.9902995824813843
      ],
      "min": [
        0.025690926238894463,
        0.5122950673103333
      ],
      "type": "VEC2"
    },
    {
      "bufferView": 0,
      "byteOffset": 54672,
      "componentType": 5125,
      "count": 36,
      "type": "SCALAR"
    },
    {
      "bufferView": 2,
      "byteOffset": 221904,
      "componentType": 5126,
      "count": 24,
      "max": [
        17.377328872680664,
        24.599891662597656,
        8.276152610778809
      ],
      "min": [
        -17.377328872680664,
        -24.59987449645996,
        -8.276152610778809
      ],
      "type": "VEC3"
    },
    {
      "bufferView": 2,
      "byteOffset": 222192,
      "componentType": 5126,
      "count": 24,
      "max": [
        0.9994206428527832,
        1.0,
        0.999420702457428
      ],
      "min": [
        -0.9994207620620728,
        -1.0,
        -0.9994206428527832
      ],
      "type": "VEC3"
    },
    {
      "bufferView": 1,
      "byteOffset": 73968,
      "componentType": 5126,
      "count": 24,
      "max": [
        0.658881664276123,
        0.9939303994178772
      ],
      "min": [
        0.3589830696582794,
        0.5122950673103333
      ],
      "type": "VEC2"
    },
    {
      "bufferView": 0,
      "byteOffset": 54816,
      "componentType": 5125,
      "count": 36,
      "type": "SCALAR"
    },
    {
      "bufferView": 2,
      "byteOffset": 222480,
      "componentType": 5126,
      "count": 24,
      "max": [
        18.528079986572266,
        24.59988021850586,
        15.874743461608887
      ],
      "min": [
        -18.528079986572266,
        -24.599885940551758,
        -15.874767303466797
      ],
      "type": "VEC3"
    },
    {
      "bufferView": 2,
      "byteOffset": 222768,
      "componentType": 5126,
      "count": 24,
      "max": [
        0.8336846232414246,
        1.0,
        0.8336847424507141
      ],
      "min": [
        -0.833683967590332,
        -1.0,
        -0.8336849808692932
      ],
      "type": "VEC3"
    },
    {
      "bufferView": 1,
      "byteOffset": 74160,
      "componentType": 5126,
      "count": 24,
      "max": [
        0.9938744306564331,
        0.49935564398765564
      ],
      "min": [
        0.69367516040802,
        0.020872041583061218
      ],
      "type": "VEC2"
    },
    {
      "bufferView": 0,
      "byteOffset": 54960,
      "componentType": 5125,
      "count": 36,
      "type": "SCALAR"
    },
    {
      "bufferView": 2,
      "byteOffset": 223056,
      "componentType": 5126,
      "count": 24,
      "max": [
        16.42470359802246,
        24.59988021850586,
        18.32280158996582
      ],
      "min": [
        -16.42470359802246,
        -24.599885940551758,
        -18.32275390625
      ],
      "type": "VEC3"
    },
    {
      "bufferView": 2,
      "byteOffset": 223344,
      "componentType": 5126,
      "count": 24,
      "max": [
        0.8005712032318115,
        1.0,
        0.800571084022522
      ],
      "min": [
        -0.8005712032318115,
        -1.0,
        -0.800571084022522
      ],
      "type": "VEC3"
    },
    {
      "bufferView": 1,
      "byteOffset": 74352,
      "componentType": 5126,
      "count": 24,
      "max": [
        0.9963648915290833,
        0.996575653553009
      ],
      "min": [
        0.6876246333122253,
        0.5171743631362915
      ],
      "type": "VEC2"
    },
    {
      "bufferView": 0,
      "byteOffset": 55104,
      "componentType": 5125,
      "count": 36,
      "type": "SCALAR"
    }
  ],
  "asset": {
    "extras": {
      "author": "wooolvie (https://sketchfab.com/wooolvie)",
      "license": "CC-BY-4.0 (http://creativecommons.org/licenses/by/4.0/)",
      "source": "https://sketchfab.com/3d-models/psx-style-supermarket-shelve-50c79c6bbdf94f04b87ae80d841fbbeb",
      "title": "PSX Style Supermarket Shelve"
    },
    "generator": "Sketchfab-16.56.0",
    "version": "2.0"
  },
  "bufferViews": [
    {
      "buffer": 0,
      "byteLength": 55248,
      "name": "floatBufferViews",
      "target": 34963
    },
    {
      "buffer": 0,
      "byteLength": 74544,
      "byteOffset": 55248,
      "byteStride": 8,
      "name": "floatBufferViews",
      "target": 34962
    },
    {
      "buffer": 0,
      "byteLength": 223632,
      "byteOffset": 129792,
      "byteStride": 12,
      "name": "floatBufferViews",
      "target": 34962
    }
  ],
  "buffers": [
    {
      "byteLength": 353424,
      "uri": "scene.bin"
    }
  ],
  "extensionsUsed": [
    "KHR_materials_specular"
  ],
  "images": [
    {
      "uri": "textures/Shelve_baseColor.jpeg"
    },
    {
      "uri": "textures/Cereal_1_baseColor.png"
    }
  ],
  "materials": [
    {
      "doubleSided": true,
      "extensions": {
        "KHR_materials_specular": {
          "specularColorFactor": [
            1.0,
            1.0,
            1.0
          ],
          "specularFactor": 0.0
        }
      },
      "name": "Shelve",
      "pbrMetallicRoughness": {
        "baseColorTexture": {
          "index": 0
        },
        "metallicFactor": 0.4434299228340505,
        "roughnessFactor": 0.5714303129304774
      }
    },
    {
      "doubleSided": true,
      "extensions": {
        "KHR_materials_specular": {
          "specularColorFactor": [
            1.0,
            1.0,
            1.0
          ],
          "specularFactor": 0.0
        }
      },
      "name": "Cereal_1",
      "pbrMetallicRoughness": {
        "baseColorTexture": {
          "index": 1
        },
        "metallicFactor": 0.3459058160939157,
        "roughnessFactor": 0.8211145618000169
      }
    }
  ],
  "meshes": [
    {
      "name": "Frame_Shelve_0",
      "primitives": [
        {
          "attributes": {
            "NORMAL": 1,
            "POSITION": 0,
            "TEXCOORD_0": 2
          },
          "indices": 3,
          "material": 0,
          "mode": 4
        }
      ]
    },
    {
      "name": "Side Shelves_Shelve_0",
      "primitives": [
        {
          "attributes": {
            "NORMAL": 5,
            "POSITION": 4,
            "TEXCOORD_0": 6
          },
          "indices": 7,
          "material": 0,
          "mode": 4
        }
      ]
    },
    {
      "name": "Main Shelves_Shelve_0",
      "primitives": [
        {
          "attributes": {
            "NORMAL": 9,
            "POSITION": 8,
            "TEXCOORD_0": 10
          },
          "indices": 11,
          "material": 0,
          "mode": 4
        }
      ]
    },
    {
      "name": "Cereal 1_Cereal 1_0",
      "primitives": [
        {
          "attributes": {
            "NORMAL": 13,
            "POSITION": 12,
            "TEXCOORD_0": 14
          },
          "indices": 15,
          "material": 1,
          "mode": 4
        }
      ]
    },
    {
      "name": "Cereal 4_Cereal 1_0",
      "primitives": [
        {
          "attributes": {
            "NORMAL": 17,
            "POSITION": 16,
            "TEXCOORD_0": 18
          },
          "indices": 19,
          "material": 1,
          "mode": 4
        }
      ]
    },
    {
      "name": "Cereal 2_Cereal 1_0",
      "primitives": [
        {
          "attributes": {
            "NORMAL": 21,
            "POSITION": 20,
            "TEXCOORD_0": 22
          },
          "indices": 23,
          "material": 1,
          "mode": 4
        }
      ]
    },
    {
      "name": "Cereal 3_Cereal 1_0",
      "primitives": [
        {
          "attributes": {
            "NORMAL": 25,
            "POSITION": 24,
            "TEXCOORD_0": 26
          },
          "indices": 27,
          "material": 1,
          "mode": 4
        }
      ]
    },
    {
      "name": "Cereal 5_Cereal 1_0",
      "primitives": [
        {
          "attributes": {
            "NORMAL": 29,
            "POSITION": 28,
            "TEXCOORD_0": 30
          },
          "indices": 31,
          "material": 1,
          "mode": 4
        }
      ]
    },
    {
      "name": "Frame.001_Shelve_0",
      "primitives": [
        {
          "attributes": {
            "NORMAL": 33,
            "POSITION": 32,
            "TEXCOORD_0": 34
          },
          "indices": 35,
          "material": 0,
          "mode": 4
        }
      ]
    },
    {
      "name": "Main Shelves.001_Shelve_0",
      "primitives": [
        {
          "attributes": {
            "NORMAL": 37,
            "POSITION": 36,
            "TEXCOORD_0": 38
          },
          "indices": 39,
          "material": 0,
          "mode": 4
        }
      ]
    },
    {
      "name": "Side Shelves.001_Shelve_0",
      "primitives": [
        {
          "attributes": {
            "NORMAL": 41,
            "POSITION": 40,
            "TEXCOORD_0": 42
          },
          "indices": 43,
          "material": 0,
          "mode": 4
        }
      ]
    },
    {
      "name": "Cereal 1.1_Cereal 1_0",
      "primitives": [
        {
          "attributes": {
            "NORMAL": 45,
            "POSITION": 44,
            "TEXCOORD_0": 46
          },
          "indices": 47,
          "material": 1,
          "mode": 4
        }
      ]
    },
    {
      "name": "Cereal 2.1_Cereal 1_0",
      "primitives": [
        {
          "attributes": {
            "NORMAL": 49,
            "POSITION": 48,
            "TEXCOORD_0": 50
          },
          "indices": 51,
          "material": 1,
          "mode": 4
        }
      ]
    },
    {
      "name": "Cereal 3.1_Cereal 1_0",
      "primitives": [
        {
          "attributes": {
            "NORMAL": 53,
            "POSITION": 52,
            "TEXCOORD_0": 54
          },
          "indices": 55,
          "material": 1,
          "mode": 4
        }
      ]
    },
    {
      "name": "Cereal 4.1_Cereal 1_0",
      "primitives": [
        {
          "attributes": {
            "NORMAL": 57,
            "POSITION": 56,
            "TEXCOORD_0": 58
          },
          "indices": 59,
          "material": 1,
          "mode": 4
        }
      ]
    },
    {
      "name": "Original Cereal 1_Cereal 1_0",
      "primitives": [
        {
          "attributes": {
            "NORMAL": 61,
            "POSITION": 60,
            "TEXCOORD_0": 62
          },
          "indices": 63,
          "material": 1,
          "mode": 4
        }
      ]
    },
    {
      "name": "Original Cereal 2_Cereal 1_0",
      "primitives": [
        {
          "attributes": {
            "NORMAL": 65,
            "POSITION": 64,
            "TEXCOORD_0": 66
          },
          "indices": 67,
          "material": 1,
          "mode": 4
        }
      ]
    },
    {
      "name": "Original Cereal 3_Cereal 1_0",
      "primitives": [
        {
          "attributes": {
            "NORMAL": 69,
            "POSITION": 68,
            "TEXCOORD_0": 70
          },
          "indices": 71,
          "material": 1,
          "mode": 4
        }
      ]
    },
    {
      "name": "Original Cereal 5_Cereal 1_0",
      "primitives": [
        {
          "attributes": {
            "NORMAL": 73,
            "POSITION": 72,
            "TEXCOORD_0": 74
          },
          "indices": 75,
          "material": 1,
          "mode": 4
        }
      ]
    }
  ],
  "nodes": [
    {
      "children": [
        1
      ],
      "matrix": [
        1.0,
        0.0,
        0.0,
        0.0,
        0.0,
        2.220446049250313e-16,
        -1.0,
        0.0,
        0.0,
        1.0,
        2.220446049250313e-16,
        0.0,
        0.0,
        0.0,
        0.0,
        1.0
      ],
      "name": "Sketchfab_model"
    },
    {
      "children": [
        2
      ],
      "matrix": [
        0.009999999776482582,
        0.0,
        0.0,
        0.0,
        0.0,
        0.0,
        0.009999999776482582,
        0.0,
        0.0,
        -0.009999999776482582,
        0.0,
        0.0,
        0.0,
        0.0,
        0.0,
        1.0
      ],
      "name": "Supermarket Shelve + Cereal.fbx"
    },
    {
      "children": [
        3,
        5,
        7,
        9,
        11,
        13,
        15,
        17,
        19,
        21,
        23,
        25,
        27,
        29,
        31,
        33,
        35,
        37,
        39
      ],
      "name": "RootNode"
    },
    {
      "children": [
        4
      ],
      "matrix": [
        1.0,
        0.0,
        0.0,
        0.0,
        0.0,
        1.0,
        0.0,
        0.0,
        0.0,
        0.0,
        1.0,
        0.0,
        1.1920928955078125e-06,
        -40.356998443603516,
        -0.003949403762817383,
        1.0
      ],
      "name": "Frame"
    },
    {
      "mesh": 0,
      "name": "Frame_Shelve_0"
    },
    {
      "children": [
        6
      ],
      "matrix": [
        1.0,
        0.0,
        0.0,
        0.0,
        0.0,
        1.0,
        0.0,
        0.0,
        0.0,
        0.0,
        1.0,
        0.0,
        1.3113021850585938e-05,
        23.037689208984375,
        0.15824884176254272,
        1.0
      ],
      "name": "Side Shelves"
    },
    {
      "mesh": 1,
      "name": "Side Shelves_Shelve_0"
    },
    {
      "children": [
        8
      ],
      "matrix": [
        1.0,
        0.0,
        0.0,
        0.0,
        0.0,
        1.0,
        0.0,
        0.0,
        0.0,
        0.0,
        1.0,
        0.0,
        0.4263450801372528,
        10.286547660827637,
        -2.7939677238464355e-07,
        1.0
      ],
      "name": "Main Shelves"
    },
    {
      "mesh": 2,
      "name": "Main Shelves_Shelve_0"
    },
    {
      "children": [
        10
      ],
      "matrix": [
        1.0,
        0.0,
        0.0,
        0.0,
        0.0,
        1.0,
        0.0,
        0.0,
        0.0,
        0.0,
        1.0,
        0.0,
        158.1365203857422,
        68.29560852050781,
        28.254409790039063,
        1.0
      ],
      "name": "Cereal 1"
    },
    {
      "mesh": 3,
      "name": "Cereal 1_Cereal 1_0"
    },
    {
      "children": [
        12
      ],
      "matrix": [
        1.0,
        0.0,
        0.0,
        0.0,
        0.0,
        1.0,
        0.0,
        0.0,
        0.0,
        0.0,
        1.0,
        0.0,
        24.971059799194336,
        -21.425621032714844,
        -1.5389256477355957,
        1.0
      ],
      "name": "Cereal 4"
    },
    {
      "mesh": 4,
      "name": "Cereal 4_Cereal 1_0"
    },
    {
      "children": [
        14
      ],
      "matrix": [
        1.0,
        0.0,
        0.0,
        0.0,
        0.0,
        1.0,
        0.0,
        0.0,
        0.0,
        0.0,
        1.0,
        0.0,
        -221.42906188964844,
        38.277442932128906,
        18.873117446899414,
        1.0
      ],
      "name": "Cereal 2"
    },
    {
      "mesh": 5,
      "name": "Cereal 2_Cereal 1_0"
    },
    {
      "children": [
        16
      ],
      "matrix": [
        1.0,
        0.0,
        0.0,
        0.0,
        0.0,
        1.0,
        0.0,
        0.0,
        0.0,
        0.0,
        1.0,
        0.0,
        222.0721893310547,
        -77.68049621582031,
        21.347023010253906,
        1.0
      ],
      "name": "Cereal 3"
    },
    {
      "mesh": 6,
      "name": "Cereal 3_Cereal 1_0"
    },
    {
      "children": [
        18
      ],
      "matrix": [
        1.0,
        0.0,
        0.0,
        0.0,
        0.0,
        1.0,
        0.0,
        0.0,
        0.0,
        0.0,
        1.0,
        0.0,
        -88.41900634765625,
        3.9751458168029785,
        -1.292508602142334,
        1.0
      ],
      "name": "Cereal 5"
    },
    {
      "mesh": 7,
      "name": "Cereal 5_Cereal 1_0"
    },
    {
      "children": [
        20
      ],
      "matrix": [
        1.0,
        0.0,
        0.0,
        0.0,
        0.0,
        1.0,
        0.0,
        0.0,
        0.0,
        0.0,
        1.0,
        0.0,
        -537.73193359375,
        -40.356998443603516,
        350.77203369140625,
        1.0
      ],
      "name": "Frame.001"
    },
    {
      "mesh": 8,
      "name": "Frame.001_Shelve_0"
    },
    {
      "children": [
        22
      ],
      "matrix": [
        1.0,
        0.0,
        0.0,
        0.0,
        0.0,
        1.0,
        0.0,
        0.0,
        0.0,
        0.0,
        1.0,
        0.0,
        -537.9114379882813,
        10.286547660827637,
        351.15875244140625,
        1.0
      ],
      "name": "Main Shelves.001"
    },
    {
      "mesh": 9,
      "name": "Main Shelves.001_Shelve_0"
    },
    {
      "children": [
        24
      ],
      "matrix": [
        1.0,
        0.0,
        0.0,
        0.0,
        0.0,
        1.0,
        0.0,
        0.0,
        0.0,
        0.0,
        1.0,
        0.0,
        -537.8796997070313,
        23.037689208984375,
        350.70501708984375,
        1.0
      ],
      "name": "Side Shelves.001"
    },
    {
      "mesh": 10,
      "name": "Side Shelves.001_Shelve_0"
    },
    {
      "children": [
        26
      ],
      "matrix": [
        1.0,
        0.0,
        0.0,
        0.0,
        0.0,
        1.0,
        0.0,
        0.0,
        0.0,
        0.0,
        1.0,
        0.0,
        -628.78271484375,
        68.29560852050781,
        483.1180114746094,
        1.0
      ],
      "name": "Cereal 1.1"
    },
    {
      "mesh": 11,
      "name": "Cereal 1.1_Cereal 1_0"
    },
    {
      "children": [
        28
      ],
      "matrix": [
        1.0,
        0.0,
        0.0,
        0.0,
        0.0,
        1.0,
        0.0,
        0.0,
        0.0,
        0.0,
        1.0,
        0.0,
        -463.46624755859375,
        38.277442932128906,
        141.3157196044922,
        1.0
      ],
      "name": "Cereal 2.1"
    },
    {
      "mesh": 12,
      "name": "Cereal 2.1_Cereal 1_0"
    },
    {
      "children": [
        30
      ],
      "matrix": [
        1.0,
        0.0,
        0.0,
        0.0,
        0.0,
        1.0,
        0.0,
        0.0,
        0.0,
        0.0,
        1.0,
        0.0,
        -648.8994140625,
        -77.68049621582031,
        544.1984252929688,
        1.0
      ],
      "name": "Cereal 3.1"
    },
    {
      "mesh": 13,
      "name": "Cereal 3.1_Cereal 1_0"
    },
    {
      "children": [
        32
      ],
      "matrix": [
        1.0,
        0.0,
        0.0,
        0.0,
        0.0,
        1.0,
        0.0,
        0.0,
        0.0,
        0.0,
        1.0,
        0.0,
        -546.64794921875,
        -21.425621032714844,
        374.1476745605469,
        1.0
      ],
      "name": "Cereal 4.1"
    },
    {
      "mesh": 14,
      "name": "Cereal 4.1_Cereal 1_0"
    },
    {
      "children": [
        34
      ],
      "matrix": [
        1.0,
        0.0,
        0.0,
        0.0,
        0.0,
        1.0,
        0.0,
        0.0,
        0.0,
        0.0,
        1.0,
        0.0,
        -217.24488830566406,
        -116.93852996826172,
        174.40200805664063,
        1.0
      ],
      "name": "Original Cereal 1"
    },
    {
      "mesh": 15,
      "name": "Original Cereal 1_Cereal 1_0"
    },
    {
      "children": [
        36
      ],
      "matrix": [
        1.0,
        0.0,
        0.0,
        0.0,
        0.0,
        1.0,
        0.0,
        0.0,
        0.0,
        0.0,
        1.0,
        0.0,
        -297.0749206542969,
        -116.36992645263672,
        247.6468505859375,
        1.0
      ],
      "name": "Original Cereal 2"
    },
    {
      "mesh": 16,
      "name": "Original Cereal 2_Cereal 1_0"
    },
    {
      "children": [
        38
      ],
      "matrix": [
        1.0,
        0.0,
        0.0,
        0.0,
        0.0,
        1.0,
        0.0,
        0.0,
        0.0,
        0.0,
        1.0,
        0.0,
        -247.71218872070313,
        -117.27108764648438,
        195.4491424560547,
        1.0
      ],
      "name": "Original Cereal 3"
    },
    {
      "mesh": 17,
      "name": "Original Cereal 3_Cereal 1_0"
    },
    {
      "children": [
        40
      ],
      "matrix": [
        1.0,
        0.0,
        0.0,
        0.0,
        0.0,
        1.0,
        0.0,
        0.0,
        0.0,
        0.0,
        1.0,
        0.0,
        -255.2006072998047,
        -118.25434875488281,
        236.6984405517578,
        1.0
      ],
      "name": "Original Cereal 5"
    },
    {
      "mesh": 18,
      "name": "Original Cereal 5_Cereal 1_0"
    }
  ],
  "samplers": [
    {
      "magFilter": 9729,
      "minFilter": 9987,
      "wrapS": 10497,
      "wrapT": 10497
    }
  ],
  "scene": 0,
  "scenes": [
    {
      "name": "Sketchfab_Scene",
      "nodes": [
        0
      ]
    }
  ],
  "textures": [
    {
      "sampler": 0,
      "source": 0
    },
    {
      "sampler": 0,
      "source": 1
    }
  ]
}
