{
  "accessors": [
    {
      "bufferView": 2,
      "componentType": 5126,
      "count": 74,
      "max": [
        -0.43688175082206726,
        2.200000047683716,
        3.9714784622192383
      ],
      "min": [
        -1.9737480878829956,
        0.20000000298023224,
        2.5886106491088867
      ],
      "type": "VEC3"
    },
    {
      "bufferView": 2,
      "byteOffset": 888,
      "componentType": 5126,
      "count": 74,
      "max": [
        0.9999988079071045,
        0.9949167370796204,
        0.7189067602157593
      ],
      "min": [
        -1.0,
        -0.30151134729385376,
        -0.7082059383392334
      ],
      "type": "VEC3"
    },
    {
      "bufferView": 1,
      "componentType": 5126,
      "count": 74,
      "max": [
        1.0014934539794922,
        1.0
      ],
      "min": [
        0.0,
        0.0018225908279418945
      ],
      "type": "VEC2"
    },
    {
      "bufferView": 0,
      "componentType": 5125,
      "count": 147,
      "type": "SCALAR"
    },
    {
      "bufferView": 2,
      "byteOffset": 1776,
      "componentType": 5126,
      "count": 91,
      "max": [
        0.006947496440261602,
        0.0024525478947907686,
        0.01378845889121294
      ],
      "min": [
        -0.006947496440261602,
        -0.00511631416156888,
        0.00896110013127327
      ],
      "type": "VEC3"
    },
    {
      "bufferView": 2,
      "byteOffset": 2868,
      "componentType": 5126,
      "count": 91,
      "max": [
        0.9116984605789185,
        1.0,
        1.0
      ],
      "min": [
        -0.9116984605789185,
        -0.9965409636497498,
        -0.9167870283126831
      ],
      "type": "VEC3"
    },
    {
      "bufferView": 1,
      "byteOffset": 592,
      "componentType": 5126,
      "count": 91,
      "max": [
        0.6888871192932129,
        0.7256462574005127
      ],
      "min": [
        0.43039438128471375,
        0.5390573740005493
      ],
      "type": "VEC2"
    },
    {
      "bufferView": 0,
      "byteOffset": 588,
      "componentType": 5125,
      "count": 288,
      "type": "SCALAR"
    },
    {
      "bufferView": 2,
      "byteOffset": 3960,
      "componentType": 5126,
      "count": 260,
      "max": [
        0.0008160382276400924,
        0.0025140095967799425,
        0.015973402187228203
      ],
      "min": [
        -0.0008160381112247705,
        -0.0020866128616034985,
        0.0015051000518724322
      ],
      "type": "VEC3"
    },
    {
      "bufferView": 2,
      "byteOffset": 7080,
      "componentType": 5126,
      "count": 260,
      "max": [
        1.0,
        1.0,
        0.9959234595298767
      ],
      "min": [
        -1.0,
        -1.0,
        -1.0
      ],
      "type": "VEC3"
    },
    {
      "bufferView": 1,
      "byteOffset": 1320,
      "componentType": 5126,
      "count": 260,
      "max": [
        0.6189727187156677,
        0.6920769214630127
      ],
      "min": [
        0.49699240922927856,
        0.5224604606628418
      ],
      "type": "VEC2"
    },
    {
      "bufferView": 0,
      "byteOffset": 1740,
      "componentType": 5125,
      "count": 762,
      "type": "SCALAR"
    },
    {
      "bufferView": 2,
      "byteOffset": 10200,
      "componentType": 5126,
      "count": 54,
      "max": [
        0.0010427613742649555,
        0.0004836934385821223,
        0.0008909824537113309
      ],
      "min": [
        -0.0010427612578496337,
        -0.00048369381693191826,
        -7.640484545845538e-05
      ],
      "type": "VEC3"
    },
    {
      "bufferView": 2,
      "byteOffset": 10848,
      "componentType": 5126,
      "count": 54,
      "max": [
        1.0,
        1.0,
        1.0
      ],
      "min": [
        -1.0,
        -1.0,
        -1.0
      ],
      "type": "VEC3"
    },
    {
      "bufferView": 0,
      "byteOffset": 4788,
      "componentType": 5125,
      "count": 162,
      "type": "SCALAR"
    },
    {
      "bufferView": 2,
      "byteOffset": 11496,
      "componentType": 5126,
      "count": 68,
      "max": [
        0.0010427613742649555,
        0.0008743827347643673,
        0.001281671691685915
      ],
      "min": [
        -0.0010427612578496337,
        -0.0008743827347643673,
        -0.0009826940950006247
      ],
      "type": "VEC3"
    },
    {
      "bufferView": 2,
      "byteOffset": 12312,
      "componentType": 5126,
      "count": 68,
      "max": [
        1.0,
        1.0,
        1.0
      ],
      "min": [
        -1.0,
        -1.0,
        -1.0
      ],
      "type": "VEC3"
    },
    {
      "bufferView": 0,
      "byteOffset": 5436,
      "componentType": 5125,
      "count": 186,
      "type": "SCALAR"
    },
    {
      "bufferView": 2,
      "byteOffset": 13128,
      "componentType": 5126,
      "count": 210,
      "max": [
        0.0013416509609669447,
        0.0009554479038342834,
        0.0024613759014755487
      ],
      "min": [
        -0.0016577602364122868,
        -0.00014654223923571408,
        0.0005413824110291898
      ],
      "type": "VEC3"
    },
    {
      "bufferView": 2,
      "byteOffset": 15648,
      "componentType": 5126,
      "count": 210,
      "max": [
        1.0,
        1.0,
        0.9706521034240723
      ],
      "min": [
        -1.0,
        -1.0,
        -0.9357773661613464
      ],
      "type": "VEC3"
    },
    {
      "bufferView": 0,
      "byteOffset": 6180,
      "componentType": 5125,
      "count": 480,
      "type": "SCALAR"
    },
    {
      "bufferView": 2,
      "byteOffset": 18168,
      "componentType": 5126,
      "count": 128,
      "max": [
        0.008037549443542957,
        0.021239513531327248,
        0.010766358114778996
      ],
      "min": [
        -0.008037549443542957,
        -0.017757846042513847,
        0.001366981421597302
      ],
      "type": "VEC3"
    },
    {
      "bufferView": 2,
      "byteOffset": 19704,
      "componentType": 5126,
      "count": 128,
      "max": [
        1.0,
        1.0,
        1.0
      ],
      "min": [
        -1.0,
        -1.0,
        -1.0
      ],
      "type": "VEC3"
    },
    {
      "bufferView": 1,
      "byteOffset": 3400,
      "componentType": 5126,
      "count": 128,
      "max": [
        0.9605958461761475,
        0.7097351551055908
      ],
      "min": [
        0.4503609240055084,
        0.5196938514709473
      ],
      "type": "VEC2"
    },
    {
      "bufferView": 0,
      "byteOffset": 8100,
      "componentType": 5125,
      "count": 294,
      "type": "SCALAR"
    },
    {
      "bufferView": 2,
      "byteOffset": 21240,
      "componentType": 5126,
      "count": 208,
      "max": [
        0.007326576393097639,
        0.021058857440948486,
        0.012527022510766983
      ],
      "min": [
        -0.007326576393097639,
        -0.01589885540306568,
        -7.505327084800228e-05
      ],
      "type": "VEC3"
    },
    {
      "bufferView": 2,
      "byteOffset": 23736,
      "componentType": 5126,
      "count": 208,
      "max": [
        1.0,
        1.0,
        1.0
      ],
      "min": [
        -1.0,
        -1.0,
        -1.0
      ],
      "type": "VEC3"
    },
    {
      "bufferView": 1,
      "byteOffset": 4424,
      "componentType": 5126,
      "count": 208,
      "max": [
        0.9362691640853882,
        0.7097351551055908
      ],
      "min": [
        0.7778826951980591,
        0.5326660871505737
      ],
      "type": "VEC2"
    },
    {
      "bufferView": 0,
      "byteOffset": 9276,
      "componentType": 5125,
      "count": 450,
      "type": "SCALAR"
    },
    {
      "bufferView": 2,
      "byteOffset": 26232,
      "componentType": 5126,
      "count": 268,
      "max": [
        0.0015599983744323254,
        0.004219524562358856,
        0.0015989417443051934
      ],
      "min": [
        -0.0015600015176460147,
        -1.782479303047424e-10,
        -0.0015629689441993833
      ],
      "type": "VEC3"
    },
    {
      "bufferView": 2,
      "byteOffset": 29448,
      "componentType": 5126,
      "count": 268,
      "max": [
        0.9801779985427856,
        1.0,
        0.9807227849960327
      ],
      "min": [
        -0.9801779985427856,
        -1.0,
        -0.9800363183021545
      ],
      "type": "VEC3"
    },
    {
      "bufferView": 1,
      "byteOffset": 6088,
      "componentType": 5126,
      "count": 268,
      "max": [
        0.451507568359375,
        0.6877000331878662
      ],
      "min": [
        0.17131531238555908,
        0.030266165733337402
      ],
      "type": "VEC2"
    },
    {
      "bufferView": 0,
      "byteOffset": 11076,
      "componentType": 5125,
      "count": 888,
      "type": "SCALAR"
    },
    {
      "bufferView": 2,
      "byteOffset": 32664,
      "componentType": 5126,
      "count": 354,
      "max": [
        0.0015599983744323254,
        0.006500000134110451,
        0.0018820305122062564
      ],
      "min": [
        -0.0015600015176460147,
        -1.782479303047424e-10,
        -0.001562969177030027
      ],
      "type": "VEC3"
    },
    {
      "bufferView": 2,
      "byteOffset": 36912,
      "componentType": 5126,
      "count": 354,
      "max": [
        1.0,
        1.0,
        1.0
      ],
      "min": [
        -1.0,
        -1.0,
        -1.0
      ],
      "type": "VEC3"
    },
    {
      "bufferView": 1,
      "byteOffset": 8232,
      "componentType": 5126,
      "count": 354,
      "max": [
        0.459820032119751,
        0.6699154376983643
      ],
      "min": [
        0.42131492495536804,
        0.010416030883789063
      ],
      "type": "VEC2"
    },
    {
      "bufferView": 0,
      "byteOffset": 14628,
      "componentType": 5125,
      "count": 1056,
      "type": "SCALAR"
    },
    {
      "bufferView": 2,
      "byteOffset": 41160,
      "componentType": 5126,
      "count": 476,
      "max": [
        0.005983342882245779,
        0.008995234034955502,
        0.01887563429772854
      ],
      "min": [
        -0.005983342882245779,
        -0.007918785326182842,
        -0.00013109369319863617
      ],
      "type": "VEC3"
    },
    {
      "bufferView": 2,
      "byteOffset": 46872,
      "componentType": 5126,
      "count": 476,
      "max": [
        1.0,
        1.0,
        1.0
      ],
      "min": [
        -1.0,
        -1.0,
        -1.0
      ],
      "type": "VEC3"
    },
    {
      "bufferView": 1,
      "byteOffset": 11064,
      "componentType": 5126,
      "count": 476,
      "max": [
        0.6522266268730164,
        0.7306348085403442
      ],
      "min": [
        0.4186674952507019,
        0.5253715515136719
      ],
      "type": "VEC2"
    },
    {
      "bufferView": 0,
      "byteOffset": 18852,
      "componentType": 5125,
      "count": 1206,
      "type": "SCALAR"
    },
    {
      "bufferView": 2,
      "byteOffset": 52584,
      "componentType": 5126,
      "count": 84,
      "max": [
        0.006236654240638018,
        0.00126615387853235,
        0.0002933825016953051
      ],
      "min": [
        -0.005608810111880302,
        -0.00033876849920488894,
        -0.0002933834330178797
      ],
      "type": "VEC3"
    },
    {
      "bufferView": 2,
      "byteOffset": 53592,
      "componentType": 5126,
      "count": 84,
      "max": [
        0.9844801425933838,
        0.9845318794250488,
        1.0
      ],
      "min": [
        -0.9844251871109009,
        -0.9848700761795044,
        -1.0
      ],
      "type": "VEC3"
    },
    {
      "bufferView": 0,
      "byteOffset": 23676,
      "componentType": 5125,
      "count": 252,
      "type": "SCALAR"
    },
    {
      "bufferView": 2,
      "byteOffset": 54600,
      "componentType": 5126,
      "count": 128,
      "max": [
        0.004048510920256376,
        0.00034501025220379233,
        0.00032423523953184485
      ],
      "min": [
        -0.0018079320434480906,
        -0.00034501057234592736,
        -0.0062139700166881084
      ],
      "type": "VEC3"
    },
    {
      "bufferView": 2,
      "byteOffset": 56136,
      "componentType": 5126,
      "count": 128,
      "max": [
        1.0,
        1.0,
        1.0
      ],
      "min": [
        -1.0,
        -1.0,
        -1.0
      ],
      "type": "VEC3"
    },
    {
      "bufferView": 0,
      "byteOffset": 24684,
      "componentType": 5125,
      "count": 228,
      "type": "SCALAR"
    },
    {
      "bufferView": 2,
      "byteOffset": 57672,
      "componentType": 5126,
      "count": 64,
      "max": [
        0.004048510920256376,
        0.00034501025220379233,
        -0.0050858003087341785
      ],
      "min": [
        -0.0018079320434480906,
        -0.00034501057234592736,
        -0.005496043246239424
      ],
      "type": "VEC3"
    },
    {
      "bufferView": 2,
      "byteOffset": 58440,
      "componentType": 5126,
      "count": 64,
      "max": [
        1.0,
        1.0,
        0.0
      ],
      "min": [
        -1.0,
        -1.0,
        0.0
      ],
      "type": "VEC3"
    },
    {
      "bufferView": 0,
      "byteOffset": 25596,
      "componentType": 5125,
      "count": 96,
      "type": "SCALAR"
    },
    {
      "bufferView": 2,
      "byteOffset": 59208,
      "componentType": 5126,
      "count": 268,
      "max": [
        0.0015599983744323254,
        0.004219524562358856,
        0.0015989417443051934
      ],
      "min": [
        -0.0015600015176460147,
        -1.782479303047424e-10,
        -0.0015629689441993833
      ],
      "type": "VEC3"
    },
    {
      "bufferView": 2,
      "byteOffset": 62424,
      "componentType": 5126,
      "count": 268,
      "max": [
        0.9801779985427856,
        1.0,
        0.9807227849960327
      ],
      "min": [
        -0.9801779985427856,
        -1.0,
        -0.9800363183021545
      ],
      "type": "VEC3"
    },
    {
      "bufferView": 1,
      "byteOffset": 14872,
      "componentType": 5126,
      "count": 268,
      "max": [
        0.451507568359375,
        0.6877000331878662
      ],
      "min": [
        0.17131531238555908,
        0.030266165733337402
      ],
      "type": "VEC2"
    },
    {
      "bufferView": 0,
      "byteOffset": 25980,
      "componentType": 5125,
      "count": 888,
      "type": "SCALAR"
    },
    {
      "bufferView": 2,
      "byteOffset": 65640,
      "componentType": 5126,
      "count": 354,
      "max": [
        0.0015599983744323254,
        0.006500000134110451,
        0.0018820305122062564
      ],
      "min": [
        -0.0015600015176460147,
        -1.782479303047424e-10,
        -0.001562969177030027
      ],
      "type": "VEC3"
    },
    {
      "bufferView": 2,
      "byteOffset": 69888,
      "componentType": 5126,
      "count": 354,
      "max": [
        1.0,
        1.0,
        1.0
      ],
      "min": [
        -1.0,
        -1.0,
        -1.0
      ],
      "type": "VEC3"
    },
    {
      "bufferView": 1,
      "byteOffset": 17016,
      "componentType": 5126,
      "count": 354,
      "max": [
        0.459820032119751,
        0.6699154376983643
      ],
      "min": [
        0.42131492495536804,
        0.010416030883789063
      ],
      "type": "VEC2"
    },
    {
      "bufferView": 0,
      "byteOffset": 29532,
      "componentType": 5125,
      "count": 1056,
      "type": "SCALAR"
    },
    {
      "bufferView": 2,
      "byteOffset": 74136,
      "componentType": 5126,
      "count": 4,
      "max": [
        1.0,
        0.0,
        1.0
      ],
      "min": [
        -1.0,
        0.0,
        -1.0
      ],
      "type": "VEC3"
    },
    {
      "bufferView": 2,
      "byteOffset": 74184,
      "componentType": 5126,
      "count": 4,
      "max": [
        0.0,
        1.0,
        0.0
      ],
      "min": [
        0.0,
        1.0,
        0.0
      ],
      "type": "VEC3"
    },
    {
      "bufferView": 1,
      "byteOffset": 19848,
      "componentType": 5126,
      "count": 4,
      "max": [
        1.0,
        1.0
      ],
      "min": [
        0.0,
        0.0
      ],
      "type": "VEC2"
    },
    {
      "bufferView": 0,
      "byteOffset": 33756,
      "componentType": 5125,
      "count": 6,
      "type": "SCALAR"
    }
  ],
  "asset": {
    "extras": {
      "author": "Epsilon (https://sketchfab.com/irounak19)",
      "license": "CC-BY-4.0 (http://creativecommons.org/licenses/by/4.0/)",
      "source": "https://sketchfab.com/3d-models/bathroompsx-style-17399640d15648379e38b535d9de1992",
      "title": "Bathroom(psx style)"
    },
    "generator": "Sketchfab-16.72.0",
    "version": "2.0"
  },
  "bufferViews": [
    {
      "buffer": 0,
      "byteLength": 33780,
      "name": "floatBufferViews",
      "target": 34963
    },
    {
      "buffer": 0,
      "byteLength": 19880,
      "byteOffset": 33780,
      "byteStride": 8,
      "name": "floatBufferViews",
      "target": 34962
    },
    {
      "buffer": 0,
      "byteLength": 74232,
      "byteOffset": 53660,
      "byteStride": 12,
      "name": "floatBufferViews",
      "target": 34962
    }
  ],
  "buffers": [
    {
      "byteLength": 127892,
      "uri": "scene.bin"
    }
  ],
  "images": [
    {
      "uri": "textures/Material.001_baseColor.png"
    },
    {
      "uri": "textures/tiny_treats_1_baseColor.png"
    },
    {
      "uri": "textures/tiny_treats_1.001_baseColor.png"
    }
  ],
  "materials": [
    {
      "doubleSided": true,
      "name": "material_0",
      "pbrMetallicRoughness": {
        "metallicFactor": 0.0,
        "roughnessFactor": 0.6
      }
    },
    {
      "doubleSided": true,
      "name": "Material.001",
      "pbrMetallicRoughness": {
        "baseColorTexture": {
          "index": 0
        },
        "metallicFactor": 0.0,
        "roughnessFactor": 0.5
      }
    },
    {
      "name": "White",
      "pbrMetallicRoughness": {
        "baseColorTexture": {
          "index": 0
        },
        "metallicFactor": 0.4,
        "roughnessFactor": 0.415087
      }
    },
    {
      "name": "Grey",
      "pbrMetallicRoughness": {
        "baseColorFactor": [
          0.207836,
          0.205706,
          0.199392,
          1.0
        ],
        "metallicFactor": 0.4,
        "roughnessFactor": 0.415087
      }
    },
    {
      "name": "Brown",
      "pbrMetallicRoughness": {
        "baseColorFactor": [
          0.0915483,
          0.0709245,
          0.0449028,
          1.0
        ],
        "metallicFactor": 0.4,
        "roughnessFactor": 0.415087
      }
    },
    {
      "name": "White.001",
      "pbrMetallicRoughness": {
        "baseColorFactor": [
          0.35838,
          0.354633,
          0.343527,
          1.0
        ],
        "metallicFactor": 0.4,
        "roughnessFactor": 0.415087
      }
    },
    {
      "name": "LightMetal",
      "pbrMetallicRoughness": {
        "baseColorFactor": [
          0.138682,
          0.138682,
          0.138682,
          1.0
        ],
        "metallicFactor": 0.4,
        "roughnessFactor": 0.415087
      }
    },
    {
      "name": "White.002",
      "pbrMetallicRoughness": {
        "baseColorTexture": {
          "index": 0
        },
        "metallicFactor": 0.4,
        "roughnessFactor": 0.415087
      }
    },
    {
      "name": "Grey.001",
      "pbrMetallicRoughness": {
        "baseColorFactor": [
          0.207836,
          0.205706,
          0.199392,
          1.0
        ],
        "metallicFactor": 0.4,
        "roughnessFactor": 0.415087
      }
    },
    {
      "name": "tiny_treats_1",
      "pbrMetallicRoughness": {
        "baseColorTexture": {
          "index": 1
        },
        "metallicFactor": 0.4
      }
    },
    {
      "name": "tiny_treats_1.001",
      "pbrMetallicRoughness": {
        "baseColorTexture": {
          "index": 2
        },
        "metallicFactor": 0.4
      }
    },
    {
      "name": "White.003",
      "pbrMetallicRoughness": {
        "baseColorTexture": {
          "index": 0
        },
        "metallicFactor": 0.4,
        "roughnessFactor": 0.415087
      }
    },
    {
      "name": "LightMetal.001",
      "pbrMetallicRoughness": {
        "baseColorFactor": [
          0.138682,
          0.138682,
          0.138682,
          1.0
        ],
        "metallicFactor": 0.4,
        "roughnessFactor": 0.415087
      }
    },
    {
      "name": "White.004",
      "pbrMetallicRoughness": {
        "baseColorFactor": [
          0.35838,
          0.354633,
          0.343527,
          1.0
        ],
        "metallicFactor": 0.4,
        "roughnessFactor": 0.415087
      }
    },
    {
      "name": "material",
      "pbrMetallicRoughness": {
        "baseColorFactor": [
          0.125944,
          0.0413947,
          0.0270033,
          1.0
        ],
        "metallicFactor": 0.4,
        "roughnessFactor": 0.415087
      }
    }
  ],
  "meshes": [
    {
      "name": "Object_0",
      "primitives": [
        {
          "attributes": {
            "NORMAL": 1,
            "POSITION": 0,
            "TEXCOORD_0": 2
          },
          "indices": 3,
          "material": 1,
          "mode": 4
        }
      ]
    },
    {
      "name": "Object_1",
      "primitives": [
        {
          "attributes": {
            "NORMAL": 5,
            "POSITION": 4,
            "TEXCOORD_0": 6
          },
          "indices": 7,
          "material": 2,
          "mode": 4
        }
      ]
    },
    {
      "name": "Object_2",
      "primitives": [
        {
          "attributes": {
            "NORMAL": 9,
            "POSITION": 8,
            "TEXCOORD_0": 10
          },
          "indices": 11,
          "material": 3,
          "mode": 4
        }
      ]
    },
    {
      "name": "Object_3",
      "primitives": [
        {
          "attributes": {
            "NORMAL": 13,
            "POSITION": 12
          },
          "indices": 14,
          "material": 4,
          "mode": 4
        }
      ]
    },
    {
      "name": "Object_4",
      "primitives": [
        {
          "attributes": {
            "NORMAL": 16,
            "POSITION": 15
          },
          "indices": 17,
          "material": 5,
          "mode": 4
        }
      ]
    },
    {
      "name": "Object_5",
      "primitives": [
        {
          "attributes": {
            "NORMAL": 19,
            "POSITION": 18
          },
          "indices": 20,
          "material": 6,
          "mode": 4
        }
      ]
    },
    {
      "name": "Object_6",
      "primitives": [
        {
          "attributes": {
            "NORMAL": 22,
            "POSITION": 21,
            "TEXCOORD_0": 23
          },
          "indices": 24,
          "material": 7,
          "mode": 4
        }
      ]
    },
    {
      "name": "Object_7",
      "primitives": [
        {
          "attributes": {
            "NORMAL": 26,
            "POSITION": 25,
            "TEXCOORD_0": 27
          },
          "indices": 28,
          "material": 8,
          "mode": 4
        }
      ]
    },
    {
      "name": "Object_8",
      "primitives": [
        {
          "attributes": {
            "NORMAL": 30,
            "POSITION": 29,
            "TEXCOORD_0": 31
          },
          "indices": 32,
          "material": 9,
          "mode": 4
        }
      ]
    },
    {
      "name": "Object_9",
      "primitives": [
        {
          "attributes": {
            "NORMAL": 34,
            "POSITION": 33,
            "TEXCOORD_0": 35
          },
          "indices": 36,
          "material": 10,
          "mode": 4
        }
      ]
    },
    {
      "name": "Object_10",
      "primitives": [
        {
          "attributes": {
            "NORMAL": 38,
            "POSITION": 37,
            "TEXCOORD_0": 39
          },
          "indices": 40,
          "material": 11,
          "mode": 4
        }
      ]
    },
    {
      "name": "Object_11",
      "primitives": [
        {
          "attributes": {
            "NORMAL": 42,
            "POSITION": 41
          },
          "indices": 43,
          "material": 12,
          "mode": 4
        }
      ]
    },
    {
      "name": "Object_12",
      "primitives": [
        {
          "attributes": {
            "NORMAL": 45,
            "POSITION": 44
          },
          "indices": 46,
          "material": 13,
          "mode": 4
        }
      ]
    },
    {
      "name": "Object_13",
      "primitives": [
        {
          "attributes": {
            "NORMAL": 48,
            "POSITION": 47
          },
          "indices": 49,
          "material": 14,
          "mode": 4
        }
      ]
    },
    {
      "name": "Object_14",
      "primitives": [
        {
          "attributes": {
            "NORMAL": 51,
            "POSITION": 50,
            "TEXCOORD_0": 52
          },
          "indices": 53,
          "material": 9,
          "mode": 4
        }
      ]
    },
    {
      "name": "Object_15",
      "primitives": [
        {
          "attributes": {
            "NORMAL": 55,
            "POSITION": 54,
            "TEXCOORD_0": 56
          },
          "indices": 57,
          "material": 10,
          "mode": 4
        }
      ]
    },
    {
      "name": "Object_16",
      "primitives": [
        {
          "attributes": {
            "NORMAL": 59,
            "POSITION": 58,
            "TEXCOORD_0": 60
          },
          "indices": 61,
          "material": 0,
          "mode": 4
        }
      ]
    }
  ],
  "nodes": [
    {
      "children": [
        1
      ],
      "matrix": [
        1.0,
        0.0,
        0.0,
        0.0,
        0.0,
        2.220446049250313e-16,
        -1.0,
        0.0,
        0.0,
        1.0,
        2.220446049250313e-16,
        0.0,
        0.0,
        0.0,
        0.0,
        1.0
      ],
      "name": "Sketchfab_model"
    },
    {
      "children": [
        2
      ],
      "name": "root"
    },
    {
      "children": [
        3,
        5,
        8,
        12,
        15,
        17,
        19,
        21,
        25,
        27,
        29
      ],
      "matrix": [
        1.0,
        0.0,
        0.0,
        0.0,
        0.0,
        2.220446049250313e-16,
        1.0,
        0.0,
        0.0,
        -1.0,
        2.220446049250313e-16,
        0.0,
        0.0,
        0.0,
        0.0,
        1.0
      ],
      "name": "GLTF_SceneRootNode"
    },
    {
      "children": [
        4
      ],
      "matrix": [
        0.5742907524108887,
        0.0,
        0.0,
        0.0,
        0.0,
        0.5742907524108887,
        0.0,
        0.0,
        0.0,
        0.0,
        0.5742907524108887,
        0.0,
        0.004395864903926849,
        0.06560742855072021,
        -0.013187587261199951,
        1.0
      ],
      "name": "bathroom_0"
    },
    {
      "mesh": 0,
      "name": "Object_4"
    },
    {
      "children": [
        6,
        7
      ],
      "matrix": [
        17.89185788401039,
        -4.383352538462307e-10,
        -0.07509046136899356,
        0.0,
        -0.07509046136899257,
        -3.0163740048383273e-06,
        -17.891857884010136,
        0.0,
        -1.2220997907826495e-08,
        17.892015457153068,
        -3.0163492779723936e-06,
        0.0,
        -0.4931449592113495,
        0.3394899368286133,
        1.519280195236206,
        1.0
      ],
      "name": "Bathroom_Sink_1"
    },
    {
      "mesh": 1,
      "name": "Object_6"
    },
    {
      "mesh": 2,
      "name": "Object_7"
    },
    {
      "children": [
        9,
        10,
        11
      ],
      "matrix": [
        -20.813431461741647,
        3.2930208743379174e-08,
        -0.04512426573899056,
        0.0,
        -0.04512427400937649,
        -3.508857494792963e-06,
        20.813435276429654,
        0.0,
        2.5322821756046922e-08,
        20.813480377196967,
        3.5089200001525634e-06,
        0.0,
        -0.434702068567276,
        0.3856635093688965,
        2.247291326522827,
        1.0
      ],
      "name": "Bathroom_ToiletPaper_2"
    },
    {
      "mesh": 3,
      "name": "Object_9"
    },
    {
      "mesh": 4,
      "name": "Object_10"
    },
    {
      "mesh": 5,
      "name": "Object_11"
    },
    {
      "children": [
        13,
        14
      ],
      "matrix": [
        18.61417579650879,
        0.0,
        0.0,
        0.0,
        -0.0,
        -6.276230239873896e-06,
        -18.614173889159098,
        0.0,
        0.0,
        18.614173889159098,
        -6.276230239873896e-06,
        0.0,
        -0.956425130367279,
        0.20856809616088867,
        1.869771957397461,
        1.0
      ],
      "name": "Bathroom_Bathtub_3"
    },
    {
      "mesh": 6,
      "name": "Object_13"
    },
    {
      "mesh": 7,
      "name": "Object_14"
    },
    {
      "children": [
        16
      ],
      "matrix": [
        7.472821235656738,
        0.0,
        0.0,
        0.0,
        0.0,
        7.472821235656738,
        0.0,
        0.0,
        0.0,
        0.0,
        7.472821235656738,
        0.0,
        -1.0060133934020996,
        0.40602827072143555,
        1.4887721538543701,
        1.0
      ],
      "name": "container_bathroom_B_yellow_4"
    },
    {
      "mesh": 8,
      "name": "Object_16"
    },
    {
      "children": [
        18
      ],
      "matrix": [
        7.564494609832764,
        0.0,
        0.0,
        0.0,
        0.0,
        7.564494609832764,
        0.0,
        0.0,
        0.0,
        0.0,
        7.564494609832764,
        0.0,
        -1.0358126163482666,
        0.40602779388427734,
        1.4889018535614014,
        1.0
      ],
      "name": "container_bathroom_D_pink_5"
    },
    {
      "mesh": 9,
      "name": "Object_18"
    },
    {
      "children": [
        20
      ],
      "matrix": [
        -15.827170525796408,
        -6.904755258895688e-09,
        -0.07265017469216117,
        0.0,
        -0.07265017906968659,
        -2.668312569480263e-06,
        15.82717147946045,
        0.0,
        -1.915269225251504e-08,
        15.827338218688737,
        2.668252765359837e-06,
        0.0,
        -0.5969694256782532,
        0.19003057479858398,
        2.1207096576690674,
        1.0
      ],
      "name": "Bathroom_Toilet_6"
    },
    {
      "mesh": 10,
      "name": "Object_20"
    },
    {
      "children": [
        22,
        23,
        24
      ],
      "matrix": [
        20.76378631591797,
        0.0,
        0.0,
        0.0,
        -0.0,
        -8.751279736991947e-06,
        -20.76378250121886,
        0.0,
        0.0,
        20.76378250121886,
        -8.751279736991947e-06,
        0.0,
        -0.7977467179298401,
        0.7002339363098145,
        1.5001349449157715,
        1.0
      ],
      "name": "Bathroom_Towel_7"
    },
    {
      "mesh": 11,
      "name": "Object_22"
    },
    {
      "mesh": 12,
      "name": "Object_23"
    },
    {
      "mesh": 13,
      "name": "Object_24"
    },
    {
      "children": [
        26
      ],
      "matrix": [
        7.472821235656738,
        0.0,
        0.0,
        0.0,
        0.0,
        7.472821235656738,
        0.0,
        0.0,
        0.0,
        0.0,
        7.472821235656738,
        0.0,
        -0.5450584888458252,
        0.5856833457946777,
        1.4887721538543701,
        1.0
      ],
      "name": "container_bathroom_B_yellow.001_8"
    },
    {
      "mesh": 14,
      "name": "Object_26"
    },
    {
      "children": [
        28
      ],
      "matrix": [
        7.564494609832764,
        0.0,
        0.0,
        0.0,
        0.0,
        7.564494609832764,
        0.0,
        0.0,
        0.0,
        0.0,
        7.564494609832764,
        0.0,
        -0.5748577117919922,
        0.5856828689575195,
        1.4889018535614014,
        1.0
      ],
      "name": "container_bathroom_D_pink.001_9"
    },
    {
      "mesh": 15,
      "name": "Object_28"
    },
    {
      "children": [
        30
      ],
      "matrix": [
        0.07526121288537979,
        0.0,
        0.0,
        0.0,
        0.0,
        0.0,
        0.14843660593032837,
        0.0,
        0.0,
        -0.0976482704281807,
        0.0,
        0.0,
        -0.48967209458351135,
        0.7388852834701538,
        1.4755043983459473,
        1.0
      ],
      "name": "Plane_10"
    },
    {
      "mesh": 16,
      "name": "Object_30"
    }
  ],
  "samplers": [
    {
      "magFilter": 9729,
      "minFilter": 9987,
      "wrapS": 10497,
      "wrapT": 10497
    }
  ],
  "scene": 0,
  "scenes": [
    {
      "name": "Sketchfab_Scene",
      "nodes": [
        0
      ]
    }
  ],
  "textures": [
    {
      "sampler": 0,
      "source": 0
    },
    {
      "sampler": 0,
      "source": 1
    },
    {
      "sampler": 0,
      "source": 2
    }
  ]
}
